SplineFontDB: 3.0
FontName: AftaSansThin-Italic
FullName: Afta Sans Thin Italic
FamilyName: Afta Sans Thin
Weight: Book
Copyright: Copyright (c) 2010 by Oriol Esparraguera Font. All rights reserved.
Version: 1.000
ItalicAngle: -12
UnderlinePosition: -75
UnderlineWidth: 50
Ascent: 800
Descent: 200
sfntRevision: 0x00010000
LayerCount: 2
Layer: 0 1 "Back"  1
Layer: 1 1 "Fore"  0
NeedsXUIDChange: 1
XUID: [1021 288 713564382 9109566]
FSType: 0
OS2Version: 3
OS2_WeightWidthSlopeOnly: 0
OS2_UseTypoMetrics: 1
CreationTime: 1287916500
ModificationTime: 1304692870
PfmFamily: 33
TTFWeight: 400
TTFWidth: 5
LineGap: 0
VLineGap: 0
Panose: 2 0 5 3 0 0 0 2 0 4
OS2TypoAscent: 980
OS2TypoAOffset: 0
OS2TypoDescent: -235
OS2TypoDOffset: 0
OS2TypoLinegap: 0
OS2WinAscent: 980
OS2WinAOffset: 0
OS2WinDescent: 235
OS2WinDOffset: 0
HheadAscent: 980
HheadAOffset: 0
HheadDescent: -235
HheadDOffset: 0
OS2SubXSize: 204
OS2SubYSize: 204
OS2SubXOff: 0
OS2SubYOff: 286
OS2SupXSize: 204
OS2SupYSize: 204
OS2SupXOff: 0
OS2SupYOff: 286
OS2StrikeYSize: 50
OS2StrikeYPos: 250
OS2Vendor: 'AFTA'
OS2CodePages: 20000011.00000000
OS2UnicodeRanges: 8000006f.40000042.00000000.00000000
Lookup: 258 0 0 "'kern' Horizontal Kerning in Latin lookup 0"  {"'kern' Horizontal Kerning in Latin lookup 0 subtable" [150,15,0] } ['kern' ('DFLT' <'dflt' > 'latn' <'dflt' > ) ]
MarkAttachClasses: 1
DEI: 91125
TtTable: prep
PUSHW_1
 511
SCANCTRL
PUSHB_1
 4
SCANTYPE
EndTTInstrs
TtTable: fpgm
PUSHW_1
 0
FDEF
MPPEM
PUSHW_1
 9
LT
IF
PUSHB_2
 1
 1
INSTCTRL
EIF
PUSHW_1
 511
SCANCTRL
PUSHW_1
 68
SCVTCI
PUSHW_2
 9
 3
SDS
SDB
ENDF
PUSHW_1
 1
FDEF
DUP
DUP
RCVT
ROUND[Black]
WCVTP
PUSHB_1
 1
ADD
ENDF
PUSHW_1
 2
FDEF
PUSHW_1
 1
LOOPCALL
POP
ENDF
PUSHW_1
 3
FDEF
DUP
GC[cur]
PUSHB_1
 3
CINDEX
GC[cur]
GT
IF
SWAP
EIF
DUP
ROLL
DUP
ROLL
MD[grid]
ABS
ROLL
DUP
GC[cur]
DUP
ROUND[Grey]
SUB
ABS
PUSHB_1
 4
CINDEX
GC[cur]
DUP
ROUND[Grey]
SUB
ABS
GT
IF
SWAP
NEG
ROLL
EIF
MDAP[rnd]
DUP
PUSHB_1
 0
GTEQ
IF
ROUND[Black]
DUP
PUSHB_1
 0
EQ
IF
POP
PUSHB_1
 64
EIF

StartChar: exclam
Encoding: 33 33 4
Width: 264
Flags: HW
LayerCount: 2
Fore
SplineSet
113 86 m 1,0,-1
 198 86 l 1,1,-1
 180 0 l 1,2,-1
 95 0 l 1,3,-1
 113 86 l 1,0,-1
191 225 m 1,4,-1
 170 225 l 1,5,-1
 208 519 l 1,6,-1
 253 732 l 1,7,-1
 324 732 l 1,8,-1
 279 519 l 1,9,-1
 191 225 l 1,4,-1
EndSplineSet
EndChar

StartChar: quotedbl
Encoding: 34 34 5
Width: 435
Flags: HW
LayerCount: 2
Fore
SplineSet
387 493 m 1,0,-1
 438 730 l 1,1,-1
 482 730 l 1,2,-1
 431 493 l 1,3,-1
 387 493 l 1,0,-1
331 730 m 1,4,-1
 280 493 l 1,5,-1
 234 493 l 1,6,-1
 285 730 l 1,7,-1
 331 730 l 1,4,-1
EndSplineSet
EndChar

StartChar: numbersign
Encoding: 35 35 6
Width: 574
Flags: HW
LayerCount: 2
Fore
SplineSet
345 458 m 1,0,-1
 265 254 l 1,1,-1
 431 254 l 1,2,3
 447 293 447 293 458.5 322.5 c 128,-1,4
 470 352 470 352 479.5 376 c 128,-1,5
 489 400 489 400 496.5 420 c 128,-1,6
 504 440 504 440 511 458 c 1,7,-1
 345 458 l 1,0,-1
254 223 m 1,8,-1
 171 0 l 1,9,-1
 125 0 l 1,10,-1
 209 223 l 1,11,-1
 93 223 l 1,12,-1
 99 254 l 1,13,-1
 220 254 l 1,14,-1
 299 458 l 1,15,-1
 169 458 l 1,16,-1
 175 489 l 1,17,-1
 310 489 l 1,18,-1
 393 709 l 1,19,-1
 439 709 l 1,20,-1
 354 489 l 1,21,-1
 522 489 l 1,22,-1
 606 709 l 1,23,-1
 653 709 l 1,24,-1
 567 489 l 1,25,-1
 663 489 l 1,26,-1
 657 458 l 1,27,-1
 556 458 l 1,28,-1
 478 254 l 1,29,-1
 581 254 l 1,30,-1
 575 223 l 1,31,-1
 469 223 l 1,32,33
 428 127 428 127 384 0 c 1,34,-1
 338 0 l 1,35,-1
 422 223 l 1,36,-1
 254 223 l 1,8,-1
EndSplineSet
EndChar

StartChar: dollar
Encoding: 36 36 7
Width: 585
Flags: HW
LayerCount: 2
Fore
SplineSet
334 27 m 1,0,1
 415 48 415 48 464.5 86.5 c 128,-1,2
 514 125 514 125 524 174 c 0,3,4
 528 191 528 191 528 206 c 0,5,6
 528 228 528 228 520 244 c 0,7,8
 492 302 492 302 402 344 c 1,9,-1
 334 27 l 1,0,1
448 708 m 1,10,11
 372 695 372 695 321 658.5 c 128,-1,12
 270 622 270 622 258 566 c 0,13,14
 255 552 255 552 255 540 c 0,15,16
 256 500 256 500 284 472 c 0,17,18
 322 434 322 434 384 409 c 1,19,-1
 448 708 l 1,10,11
488 751 m 1,20,21
 628 743 628 743 692 704 c 1,22,-1
 682 654 l 1,23,24
 594 700 594 700 479 709 c 1,25,-1
 415 405 l 1,26,27
 453 390 453 390 492 371.5 c 0,28,29
 531 352 531 352 559 326 c 0,30,31
 608 280 608 280 608 217 c 0,32,33
 608 197 608 197 603 174 c 1,34,35
 586 90 586 90 496 36 c 0,36,37
 424 -7 424 -7 324 -19 c 1,38,-1
 303 -119 l 1,39,-1
 272 -119 l 1,40,-1
 293 -20 l 1,41,42
 201 -16 201 -16 144.5 3 c 128,-1,43
 88 22 88 22 66 40 c 1,44,-1
 80 105 l 1,45,46
 109 79 109 79 166 55.5 c 128,-1,47
 223 32 223 32 303 28 c 1,48,-1
 372 349 l 1,49,50
 262 384 262 384 211 433 c 0,51,52
 173 470 173 470 173 525 c 0,53,54
 173 543 173 543 177 564 c 0,55,56
 192 634 192 634 262 684 c 0,57,58
 340 740 340 740 457 751 c 1,59,-1
 472 820 l 1,60,-1
 503 820 l 1,61,-1
 488 751 l 1,20,21
EndSplineSet
EndChar

StartChar: percent
Encoding: 37 37 8
Width: 1000
Flags: HW
LayerCount: 2
Fore
SplineSet
878 383 m 1,0,1
 924 383 924 383 950.5 366 c 128,-1,2
 977 349 977 349 988 321.5 c 128,-1,3
 999 294 999 294 999 258 c 0,4,5
 999 229 999 229 992 194 c 0,6,7
 975 117 975 117 952 78.5 c 0,8,9
 928 40 928 40 902 20 c 0,10,11
 862 -9 862 -9 794 -9 c 0,12,13
 767 -9 767 -9 739.5 -4 c 0,14,15
 712 0 712 0 692 20 c 0,16,17
 663 49 663 49 663 111 c 0,18,19
 663 143 663 143 671 183 c 1,20,21
 696 282 696 282 742 330 c 0,22,23
 792 382 792 382 878 383 c 1,0,1
748 14 m 0,24,25
 769 6 769 6 797.5 6 c 128,-1,26
 826 6 826 6 850 15 c 128,-1,27
 874 24 874 24 892 44 c 0,28,29
 932 88 932 88 951 183 c 1,30,31
 963 238 963 238 963 276 c 0,32,33
 963 308 963 308 954 326 c 0,34,35
 935 365 935 365 872 365 c 0,36,37
 810 365 810 365 774 325 c 0,38,39
 733 280 733 280 712 179 c 0,40,41
 703 135 703 135 703 103 c 0,42,43
 703 31 703 31 748 14 c 0,24,25
1005 740 m 1,44,-1
 280 -19 l 1,45,-1
 230 -19 l 1,46,-1
 954 740 l 1,47,-1
 1005 740 l 1,44,-1
294 360 m 0,48,49
 314 353 314 353 339.5 353 c 128,-1,50
 365 353 365 353 388.5 361 c 128,-1,51
 412 369 412 369 432 389 c 0,52,53
 473 431 473 431 493 525 c 1,54,55
 503 571 503 571 503 605 c 0,56,57
 502 678 502 678 458 695 c 0,58,59
 438 703 438 703 411.5 703 c 128,-1,60
 385 703 385 703 361 695 c 0,61,62
 337 686 337 686 317 666 c 0,63,64
 276 624 276 624 253 522 c 1,65,66
 245 483 245 483 245 453 c 0,67,68
 245 377 245 377 294 360 c 0,48,49
417 726 m 0,69,70
 541 726 541 726 541 607 c 0,71,72
 541 604 541 604 541 600 c 0,73,74
 540 564 540 564 533 525 c 1,75,76
 506 406 506 406 442 362 c 0,77,78
 398 332 398 332 334 332 c 128,-1,79
 270 332 270 332 239 362 c 0,80,81
 206 394 206 394 206 459 c 0,82,83
 206 489 206 489 213 525 c 1,84,85
 235 621 235 621 283.5 673.5 c 128,-1,86
 332 726 332 726 417 726 c 0,69,70
EndSplineSet
EndChar

StartChar: ampersand
Encoding: 38 38 9
Width: 759
Flags: HW
LayerCount: 2
Fore
SplineSet
585 29 m 1,0,1
 470 -18 470 -18 323 -18 c 0,2,3
 102 -18 102 -18 90 138 c 0,4,5
 89 150 89 150 89 163 c 0,6,7
 89 204 89 204 99 250 c 0,8,9
 112 312 112 312 134 354.5 c 128,-1,10
 156 397 156 397 190 426 c 0,11,12
 253 481 253 481 375 499 c 1,13,14
 374 527 374 527 372 548 c 0,15,16
 371 555 371 555 371 562 c 0,17,18
 371 585 371 585 377 613 c 0,19,20
 385 650 385 650 403.5 672 c 128,-1,21
 422 694 422 694 447 706 c 0,22,23
 489 727 489 727 559 728 c 0,24,25
 560 728 560 728 562 728 c 0,26,27
 634 728 634 728 672 702 c 0,28,29
 699 684 699 684 699 645 c 0,30,31
 698 621 698 621 688 589 c 0,32,33
 682 572 682 572 674 548 c 1,34,35
 774 530 774 530 809 474 c 0,36,37
 830 441 830 441 830 386 c 0,38,39
 830 351 830 351 821 306 c 1,40,41
 804 230 804 230 762.5 168 c 128,-1,42
 721 106 721 106 642 56 c 1,43,44
 690 26 690 26 744 26 c 128,-1,45
 798 26 798 26 837 38 c 128,-1,46
 876 50 876 50 911 67 c 1,47,-1
 899 14 l 1,48,49
 839 -16 839 -16 734 -16 c 0,50,51
 694 -16 694 -16 659 -7.5 c 128,-1,52
 624 1 624 1 585 29 c 1,0,1
374 473 m 1,53,54
 331 462 331 462 297.5 449.5 c 0,55,56
 264 436 264 436 240 414 c 0,57,58
 191 369 191 369 166 258 c 1,59,60
 155 205 155 205 155 165 c 0,61,62
 155 104 155 104 180 73 c 0,63,64
 218 24 218 24 334 24 c 1,65,66
 425 24 425 24 549 57 c 1,67,68
 475 146 475 146 434.5 253.5 c 128,-1,69
 394 361 394 361 374 473 c 1,53,54
655 517 m 1,70,71
 591 398 591 398 479 263 c 1,72,73
 513 187 513 187 529 161 c 0,74,75
 551 125 551 125 590 86 c 1,76,77
 654 114 654 114 694.5 167 c 128,-1,78
 735 220 735 220 754 310 c 0,79,80
 764 356 764 356 764 390 c 0,81,82
 764 430 764 430 750 454 c 0,83,84
 738 476 738 476 714 490 c 128,-1,85
 690 504 690 504 655 517 c 1,70,71
622 535.5 m 0,86,87
 638 570 638 570 644 598 c 0,88,89
 648 613 648 613 648 625 c 0,90,91
 648 635 648 635 646 643 c 0,92,93
 640 660 640 660 627 669 c 0,94,95
 605 684 605 684 566 684 c 128,-1,96
 527 684 527 684 505.5 681 c 128,-1,97
 484 678 484 678 466 669 c 0,98,99
 430 650 430 650 419 598 c 0,100,101
 415 582 415 582 415 559 c 0,102,103
 414 516 414 516 428 454 c 0,104,105
 443 384 443 384 473 306 c 1,106,107
 557 423 557 423 581.5 462.5 c 128,-1,108
 606 502 606 502 622 535.5 c 0,86,87
EndSplineSet
EndChar

StartChar: quotesingle
Encoding: 39 39 10
Width: 286
Flags: HW
LayerCount: 2
Fore
SplineSet
234 493 m 1,0,-1
 285 730 l 1,1,-1
 330 730 l 1,2,-1
 279 493 l 1,3,-1
 234 493 l 1,0,-1
EndSplineSet
EndChar

StartChar: parenleft
Encoding: 40 40 11
Width: 315
Flags: HW
LayerCount: 2
Fore
SplineSet
462 753 m 1,0,1
 331 602 331 602 244 416 c 0,2,3
 210 343 210 343 196 275 c 0,4,5
 182 211 182 211 182 152 c 0,6,7
 182 148 182 148 182 144 c 0,8,9
 183 80 183 80 192 18 c 0,10,11
 207 -87 207 -87 249 -213 c 1,12,-1
 220 -213 l 1,13,14
 134 -84 134 -84 112 100 c 0,15,16
 109 129 109 129 109 158 c 0,17,18
 109 338 109 338 237 531 c 0,19,20
 318 653 318 653 426 753 c 1,21,-1
 462 753 l 1,0,1
EndSplineSet
EndChar

StartChar: parenright
Encoding: 41 41 12
Width: 308
Flags: HW
LayerCount: 2
Fore
SplineSet
218 753 m 1,0,1
 330 566 330 566 330 388 c 0,2,3
 330 269 330 269 280 154 c 0,4,5
 216 8 216 8 100 -123 c 0,6,7
 70 -157 70 -157 46.5 -180 c 128,-1,8
 23 -203 23 -203 13 -213 c 1,9,-1
 -17 -213 l 1,10,11
 98 -52 98 -52 137 14 c 0,12,13
 218 153 218 153 244 269 c 1,14,15
 257 329 257 329 257 396 c 0,16,17
 256 472 256 472 240 556 c 0,18,19
 221 655 221 655 182 753 c 1,20,-1
 218 753 l 1,0,1
EndSplineSet
EndChar

StartChar: asterisk
Encoding: 42 42 13
Width: 329
Flags: HW
LayerCount: 2
Fore
SplineSet
435 679 m 1,0,1
 439 659 439 659 439 656 c 1,2,3
 412 645 412 645 377.5 631.5 c 128,-1,4
 343 618 343 618 312 605 c 1,5,6
 326 598 326 598 343.5 587.5 c 128,-1,7
 361 577 361 577 377 567.5 c 128,-1,8
 393 558 393 558 404 552 c 2,9,-1
 415 545 l 1,10,-1
 402 520 l 1,11,-1
 314 592 l 1,12,-1
 287 462 l 1,13,-1
 261 462 l 1,14,-1
 288 592 l 1,15,-1
 170 520 l 1,16,-1
 167 545 l 1,17,18
 215 570 215 570 247.5 584 c 128,-1,19
 280 598 280 598 296 605 c 1,20,21
 277 615 277 615 191 656 c 1,22,-1
 205 679 l 1,23,-1
 295 625 l 1,24,-1
 318 731 l 1,25,-1
 344 731 l 1,26,-1
 321 625 l 1,27,-1
 435 679 l 1,0,1
EndSplineSet
EndChar

StartChar: plus
Encoding: 43 43 14
Width: 600
Flags: HW
LayerCount: 2
Fore
SplineSet
331 509 m 1,0,-1
 331 274 l 1,1,-1
 567 274 l 1,2,-1
 567 232 l 1,3,-1
 331 232 l 1,4,-1
 331 1 l 1,5,-1
 286 1 l 1,6,-1
 286 232 l 1,7,-1
 59 232 l 1,8,-1
 59 274 l 1,9,-1
 286 274 l 1,10,-1
 286 509 l 1,11,-1
 331 509 l 1,0,-1
EndSplineSet
EndChar

StartChar: comma
Encoding: 44 44 15
Width: 278
Flags: HW
LayerCount: 2
Fore
SplineSet
123 84 m 1,0,-1
 210 84 l 1,1,2
 206 19 206 19 197 -20.5 c 128,-1,3
 188 -60 188 -60 172 -91.5 c 0,4,5
 156 -124 156 -124 136 -144 c 0,6,7
 101 -180 101 -180 52 -187 c 1,8,-1
 59 -152 l 1,9,10
 130 -145 130 -145 154 -52 c 0,11,12
 160 -26 160 -26 166 0 c 1,13,-1
 106 0 l 1,14,-1
 123 84 l 1,0,-1
EndSplineSet
EndChar

StartChar: hyphen
Encoding: 45 45 16
Width: 398
Flags: HW
LayerCount: 2
Fore
SplineSet
411 304 m 1,0,-1
 400 253 l 1,1,-1
 120 253 l 1,2,-1
 131 304 l 1,3,-1
 411 304 l 1,0,-1
EndSplineSet
EndChar

StartChar: period
Encoding: 46 46 17
Width: 271
Flags: HW
LayerCount: 2
Fore
SplineSet
123 83 m 1,0,-1
 208 83 l 1,1,-1
 190 -1 l 1,2,-1
 105 -1 l 1,3,-1
 123 83 l 1,0,-1
EndSplineSet
EndChar

StartChar: slash
Encoding: 47 47 18
Width: 347
Flags: HW
LayerCount: 2
Fore
SplineSet
470 753 m 1,0,-1
 517 753 l 1,1,-1
 48 -19 l 1,2,-1
 1 -19 l 1,3,-1
 470 753 l 1,0,-1
EndSplineSet
EndChar

StartChar: zero
Encoding: 48 48 19
Width: 650
Flags: HW
LayerCount: 2
Fore
SplineSet
566.5 661 m 128,-1,1
 532 678 532 678 485 678 c 128,-1,2
 438 678 438 678 394 661.5 c 0,3,4
 350 646 350 646 313 606 c 0,5,6
 233 521 233 521 196 341 c 1,7,8
 180 266 180 266 180 209 c 0,9,10
 180 134 180 134 208 90 c 0,11,12
 249 25 249 25 348 25 c 256,13,14
 496 26 496 26 580 198 c 0,15,16
 610 260 610 260 629 350 c 0,17,18
 645 428 645 428 645 485 c 0,19,20
 645 494 645 494 645 503 c 0,21,22
 642 566 642 566 621.5 605 c 128,-1,0
 601 644 601 644 566.5 661 c 128,-1,1
390.5 709 m 128,-1,24
 445 723 445 723 484.5 723 c 128,-1,25
 524 723 524 723 554.5 718 c 128,-1,26
 585 713 585 713 613 698.5 c 128,-1,27
 641 684 641 684 664 658.5 c 128,-1,28
 687 633 687 633 699.5 591 c 128,-1,29
 712 549 712 549 712 489.5 c 128,-1,30
 712 430 712 430 694.5 349 c 128,-1,31
 677 268 677 268 651.5 210 c 128,-1,32
 626 152 626 152 595 111.5 c 128,-1,33
 564 71 564 71 529 46 c 0,34,35
 494 22 494 22 460 8 c 0,36,37
 402 -16 402 -16 339 -16 c 257,38,39
 233 -16 233 -16 171 46 c 0,40,41
 118 99 118 99 114 210 c 0,42,43
 114 215 114 215 114 220 c 0,44,45
 114 276 114 276 134 367 c 0,46,47
 156 466 156 466 196.5 539.5 c 128,-1,48
 237 613 237 613 286.5 654 c 128,-1,23
 336 695 336 695 390.5 709 c 128,-1,24
EndSplineSet
EndChar

StartChar: one
Encoding: 49 49 20
Width: 435
Flags: HW
LayerCount: 2
Fore
SplineSet
409 726 m 1,0,-1
 255 0 l 1,1,-1
 189 0 l 1,2,-1
 332 674 l 1,3,4
 305 667 305 667 287 662 c 0,5,6
 247 651 247 651 243 651 c 0,7,8
 242 651 l 2,9,-1
 248 680 l 1,10,-1
 257 685 l 2,11,12
 266 690 266 690 278 697 c 128,-1,13
 290 704 290 704 304 712 c 128,-1,14
 318 720 318 720 327 726 c 1,15,-1
 409 726 l 1,0,-1
EndSplineSet
EndChar

StartChar: two
Encoding: 50 50 21
Width: 581
Flags: HW
LayerCount: 2
Fore
SplineSet
239 601 m 1,0,1
 220 620 220 620 198 640 c 1,2,3
 231 674 231 674 293 700 c 128,-1,4
 355 726 355 726 420.5 726 c 128,-1,5
 486 726 486 726 525.5 711 c 0,6,7
 566 696 566 696 588 670 c 0,8,9
 621 632 621 632 620 581 c 0,10,11
 620 562 620 562 616 542 c 0,12,13
 599 465 599 465 543.5 405.5 c 128,-1,14
 488 346 488 346 385 301 c 1,15,16
 283 254 283 254 224 201 c 0,17,18
 148 132 148 132 127 48 c 1,19,-1
 534 48 l 1,20,-1
 524 0 l 1,21,-1
 34 0 l 1,22,23
 66 140 66 140 158 226 c 0,24,25
 202 266 202 266 257.5 297.5 c 128,-1,26
 313 329 313 329 385.5 362 c 0,27,28
 458 394 458 394 499 440 c 0,29,30
 554 501 554 501 554 565 c 0,31,32
 554 576 554 576 552 588 c 0,33,34
 544 640 544 640 488 664 c 0,35,36
 460 676 460 676 418 679 c 1,37,38
 317 679 317 679 239 601 c 1,0,1
EndSplineSet
EndChar

StartChar: three
Encoding: 51 51 22
Width: 620
Flags: HW
LayerCount: 2
Fore
SplineSet
58 75 m 1,0,1
 158 26 158 26 287 26 c 0,2,3
 402 26 402 26 478 92 c 0,4,5
 510 120 510 120 527 150 c 128,-1,6
 544 180 544 180 549 204 c 0,7,8
 551 214 551 214 551 225 c 0,9,10
 551 240 551 240 547 256 c 0,11,12
 540 284 540 284 520 306 c 0,13,14
 474 356 474 356 380 357 c 2,15,-1
 294 357 l 1,16,-1
 305 405 l 1,17,-1
 391 405 l 2,18,19
 480 404 480 404 530 448 c 0,20,21
 569 482 569 482 583 546 c 0,22,23
 586 562 586 562 586 577 c 0,24,25
 586 639 586 639 524 667 c 0,26,27
 497 679 497 679 458.5 679 c 128,-1,28
 420 679 420 679 382 671 c 128,-1,29
 344 663 344 663 309 652 c 0,30,31
 258 636 258 636 190 605 c 1,32,-1
 202 659 l 1,33,34
 254 683 254 683 320.5 705 c 128,-1,35
 387 727 387 727 448.5 727 c 128,-1,36
 510 727 510 727 550 718 c 128,-1,37
 590 709 590 709 618 689 c 0,38,39
 666 655 666 655 666 596 c 0,40,41
 666 580 666 580 662 561 c 1,42,43
 647 493 647 493 607.5 448.5 c 128,-1,44
 568 404 568 404 494 385 c 1,45,46
 578 363 578 363 608 330 c 0,47,48
 638 298 638 298 637 248 c 0,49,50
 637 227 637 227 632 202 c 1,51,52
 613 111 613 111 520 49 c 0,53,54
 421 -17 421 -17 284 -17 c 1,55,56
 152 -18 152 -18 74 10 c 0,57,58
 56 16 56 16 47 22 c 1,59,-1
 58 75 l 1,0,1
EndSplineSet
EndChar

StartChar: four
Encoding: 52 52 23
Width: 676
Flags: HW
LayerCount: 2
Fore
SplineSet
476 244 m 1,0,-1
 568 674 l 1,1,2
 408 522 408 522 299.5 416.5 c 128,-1,3
 191 311 191 311 121 244 c 1,4,-1
 476 244 l 1,0,-1
79 201 m 1,5,-1
 92 263 l 1,6,7
 217 380 217 380 338 495 c 128,-1,8
 459 610 459 610 584 727 c 1,9,-1
 644 727 l 1,10,-1
 541 244 l 1,11,-1
 706 244 l 1,12,-1
 697 201 l 1,13,-1
 532 201 l 1,14,-1
 490 0 l 1,15,-1
 425 0 l 1,16,-1
 467 201 l 1,17,-1
 79 201 l 1,5,-1
EndSplineSet
EndChar

StartChar: five
Encoding: 53 53 24
Width: 620
Flags: HW
LayerCount: 2
Fore
SplineSet
151 432 m 1,0,-1
 258 715 l 1,1,-1
 730 715 l 1,2,3
 727 706 727 706 715 676 c 1,4,-1
 309 676 l 1,5,-1
 231 446 l 1,6,7
 329 483 329 483 397.5 483 c 128,-1,8
 466 483 466 483 516 470 c 0,9,10
 566 456 566 456 598 428 c 0,11,12
 647 385 647 385 647 310 c 0,13,14
 647 282 647 282 640 250 c 0,15,16
 615 132 615 132 519 64 c 0,17,18
 427 0 427 0 301 0 c 1,19,20
 162 0 162 0 82 38 c 0,21,22
 63 47 63 47 55 53 c 1,23,-1
 67 111 l 1,24,25
 197 41 197 41 309 41 c 0,26,27
 417 41 417 41 490 112 c 0,28,29
 551 171 551 171 568 250 c 1,30,31
 573 275 573 275 573 298 c 0,32,33
 574 390 574 390 490 426 c 0,34,35
 452 442 452 442 410 442 c 128,-1,36
 368 442 368 442 338.5 437 c 128,-1,37
 309 432 309 432 282.5 425.5 c 0,38,39
 256 420 256 420 234 412 c 2,40,-1
 199 400 l 1,41,-1
 151 432 l 1,0,-1
EndSplineSet
EndChar

StartChar: six
Encoding: 54 54 25
Width: 602
Flags: HW
LayerCount: 2
Fore
SplineSet
179 219 m 1,0,1
 174 198 174 198 174 179 c 0,2,3
 174 134 174 134 200 94 c 0,4,5
 240 31 240 31 319 30 c 0,6,7
 380 30 380 30 427.5 57 c 128,-1,8
 475 84 475 84 506.5 125 c 128,-1,9
 538 166 538 166 550 214 c 0,10,11
 557 242 557 242 558 267 c 0,12,13
 558 285 558 285 554 302 c 0,14,15
 545 343 545 343 513.5 370 c 128,-1,16
 482 397 482 397 434.5 397 c 128,-1,17
 387 397 387 397 351.5 382 c 128,-1,18
 316 367 316 367 284 342 c 0,19,20
 220 292 220 292 179 219 c 1,0,1
690 601 m 1,21,22
 586 677 586 677 479 677 c 0,23,24
 384 676 384 676 315 606 c 0,25,26
 218 508 218 508 180 285 c 1,27,28
 190 303 190 303 213.5 330.5 c 0,29,30
 236 358 236 358 270 384 c 0,31,32
 351 446 351 446 433 445.5 c 128,-1,33
 515 445 515 445 561.5 411.5 c 128,-1,34
 608 378 608 378 624 327 c 0,35,36
 632 300 632 300 632 270 c 0,37,38
 632 244 632 244 626 218 c 0,39,40
 612 160 612 160 571.5 108.5 c 128,-1,41
 531 57 531 57 465 23.5 c 128,-1,42
 399 -10 399 -10 325 -10 c 128,-1,43
 251 -10 251 -10 206.5 7.5 c 128,-1,44
 162 25 162 25 137 67 c 0,45,46
 108 115 108 115 108 199 c 0,47,48
 108 266 108 266 127 356 c 1,49,50
 169 550 169 550 272 644 c 0,51,52
 363 726 363 726 490 727 c 0,53,54
 576 727 576 727 660 684 c 0,55,56
 684 672 684 672 707 659 c 1,57,-1
 690 601 l 1,21,22
EndSplineSet
EndChar

StartChar: seven
Encoding: 55 55 26
Width: 613
Flags: HW
LayerCount: 2
Fore
SplineSet
222 709 m 1,0,-1
 726 709 l 1,1,2
 717 666 717 666 701 645 c 128,-1,3
 685 624 685 624 673.5 612.5 c 128,-1,4
 662 601 662 601 656 594 c 128,-1,5
 650 587 650 587 634.5 571.5 c 128,-1,6
 619 556 619 556 591.5 529 c 128,-1,7
 564 502 564 502 527.5 465.5 c 128,-1,8
 491 429 491 429 449 388 c 1,9,10
 375 306 375 306 354 209 c 2,11,-1
 310 0 l 1,12,-1
 242 0 l 1,13,-1
 286 209 l 2,14,15
 301 280 301 280 332.5 327 c 128,-1,16
 364 374 364 374 397 409 c 1,17,-1
 532 544 l 2,18,19
 596 608 596 608 661 672 c 1,20,-1
 198 672 l 1,21,-1
 222 709 l 1,0,-1
EndSplineSet
EndChar

StartChar: eight
Encoding: 56 56 27
Width: 613
Flags: HW
LayerCount: 2
Fore
SplineSet
443 445 m 1,0,1
 448 446 448 446 471 455.5 c 128,-1,2
 494 465 494 465 521 482 c 0,3,4
 591 526 591 526 601 576 c 0,5,6
 604 588 604 588 604 599 c 0,7,8
 604 642 604 642 564 662 c 0,9,10
 529 680 529 680 459 680 c 0,11,12
 398 680 398 680 358.5 662 c 128,-1,13
 319 644 319 644 299 624 c 128,-1,14
 279 604 279 604 273 576 c 0,15,16
 272 569 272 569 272 564 c 0,17,18
 272 544 272 544 286 528 c 0,19,20
 306 506 306 506 334 490 c 0,21,22
 372 468 372 468 443 445 c 1,0,1
365 402 m 1,23,24
 285 379 285 379 229.5 326 c 128,-1,25
 174 273 174 273 157 195 c 0,26,27
 152 174 152 174 152 156 c 0,28,29
 152 100 152 100 195 68 c 0,30,31
 243 31 243 31 322 30 c 0,32,33
 406 30 406 30 473 74 c 0,34,35
 544 120 544 120 559 195 c 0,36,37
 563 215 563 215 563 234 c 0,38,39
 564 298 564 298 514 343 c 0,40,41
 456 395 456 395 365 402 c 1,23,24
312 416 m 1,42,43
 231 452 231 452 204 512 c 0,44,45
 197 528 197 528 197 546 c 0,46,47
 197 556 197 556 199 567 c 0,48,49
 215 643 215 643 285 684.5 c 128,-1,50
 355 726 355 726 470 726 c 0,51,52
 585 726 585 726 636 679 c 0,53,54
 672 646 672 646 672 598 c 0,55,56
 672 583 672 583 669 567 c 0,57,58
 648 469 648 469 496 418 c 1,59,60
 572 379 572 379 604 332 c 0,61,62
 634 288 634 288 635 236 c 0,63,64
 635 216 635 216 630 195 c 0,65,66
 609 94 609 94 518 36 c 0,67,68
 433 -18 433 -18 311 -17 c 1,69,70
 124 -16 124 -16 90 94 c 0,71,72
 83 115 83 115 83 139 c 0,73,74
 82 162 82 162 88 188 c 0,75,76
 100 242 100 242 128 279 c 128,-1,77
 156 316 156 316 190 344 c 0,78,79
 248 393 248 393 312 416 c 1,42,43
EndSplineSet
EndChar

StartChar: nine
Encoding: 57 57 28
Width: 602
Flags: HW
LayerCount: 2
Fore
SplineSet
599 498 m 1,0,1
 604 519 604 519 604 538 c 0,2,3
 604 584 604 584 579 624 c 0,4,5
 540 688 540 688 460 687 c 1,6,7
 398 687 398 687 350.5 660 c 128,-1,8
 303 633 303 633 272 592 c 0,9,10
 241 552 241 552 228 504 c 0,11,12
 220 476 220 476 220 450 c 0,13,14
 220 432 220 432 224 415 c 0,15,16
 233 374 233 374 265 347 c 128,-1,17
 297 320 297 320 344.5 320 c 128,-1,18
 392 320 392 320 427.5 335 c 128,-1,19
 463 350 463 350 495 375 c 0,20,21
 558 424 558 424 599 498 c 1,0,1
88 116 m 1,22,23
 199 40 199 40 299 40 c 0,24,25
 394 40 394 40 464 110 c 0,26,27
 516 162 516 162 556 268 c 0,28,29
 585 345 585 345 598 432 c 1,30,31
 568 380 568 380 508 334 c 0,32,33
 426 272 426 272 344.5 272 c 128,-1,34
 263 272 263 272 217 305.5 c 128,-1,35
 171 339 171 339 155 390 c 0,36,37
 146 418 146 418 146 448 c 0,38,39
 146 474 146 474 152 500 c 0,40,41
 166 558 166 558 207 609 c 128,-1,42
 248 660 248 660 313.5 693.5 c 128,-1,43
 379 727 379 727 453 727 c 128,-1,44
 527 727 527 727 572 709.5 c 128,-1,45
 617 692 617 692 642 650 c 0,46,47
 671 602 671 602 671 520 c 0,48,49
 671 452 671 452 651 361 c 0,50,51
 610 166 610 166 506 72 c 0,52,53
 416 -10 416 -10 288 -10 c 0,54,55
 202 -10 202 -10 118 33 c 0,56,57
 94 45 94 45 72 58 c 1,58,-1
 88 116 l 1,22,23
EndSplineSet
EndChar

StartChar: colon
Encoding: 58 58 29
Width: 281
Flags: HW
LayerCount: 2
Fore
SplineSet
123 83 m 1,0,-1
 208 83 l 1,1,-1
 190 -1 l 1,2,-1
 105 -1 l 1,3,-1
 123 83 l 1,0,-1
198 433 m 1,4,-1
 215 517 l 1,5,-1
 300 517 l 1,6,-1
 283 433 l 1,7,-1
 198 433 l 1,4,-1
EndSplineSet
EndChar

StartChar: semicolon
Encoding: 59 59 30
Width: 287
Flags: HW
LayerCount: 2
Fore
SplineSet
106 0 m 1,0,-1
 123 84 l 1,1,-1
 210 84 l 1,2,3
 206 19 206 19 197 -20.5 c 128,-1,4
 188 -60 188 -60 172 -91.5 c 0,5,6
 156 -124 156 -124 136 -144 c 0,7,8
 101 -180 101 -180 52 -187 c 1,9,-1
 59 -152 l 1,10,11
 130 -145 130 -145 154 -52 c 0,12,13
 160 -26 160 -26 166 0 c 1,14,-1
 106 0 l 1,0,-1
198 433 m 1,15,-1
 215 517 l 1,16,-1
 300 517 l 1,17,-1
 283 433 l 1,18,-1
 198 433 l 1,15,-1
EndSplineSet
EndChar

StartChar: less
Encoding: 60 60 31
Width: 621
Flags: HW
LayerCount: 2
Fore
SplineSet
590 458 m 1,0,-1
 101 253 l 1,1,-1
 599 49 l 1,2,-1
 599 -2 l 1,3,4
 510 34 510 34 386 91 c 0,5,6
 148 199 148 199 59 235 c 1,7,-1
 59 274 l 1,8,9
 190 328 190 328 324.5 392.5 c 128,-1,10
 459 457 459 457 590 511 c 1,11,-1
 590 458 l 1,0,-1
EndSplineSet
EndChar

StartChar: equal
Encoding: 61 61 32
Width: 598
Flags: HW
LayerCount: 2
Fore
SplineSet
560 169 m 1,0,-1
 560 128 l 1,1,-1
 59 128 l 1,2,-1
 59 169 l 1,3,-1
 560 169 l 1,0,-1
560 378 m 1,4,-1
 560 335 l 1,5,-1
 59 335 l 1,6,-1
 59 378 l 1,7,-1
 560 378 l 1,4,-1
EndSplineSet
EndChar

StartChar: greater
Encoding: 62 62 33
Width: 618
Flags: HW
LayerCount: 2
Fore
SplineSet
57 511 m 1,0,1
 188 457 188 457 322.5 392.5 c 128,-1,2
 457 328 457 328 588 274 c 1,3,-1
 588 235 l 1,4,5
 499 199 499 199 375 142 c 0,6,7
 137 34 137 34 48 -2 c 1,8,-1
 48 49 l 1,9,-1
 546 253 l 1,10,-1
 57 458 l 1,11,-1
 57 511 l 1,0,1
EndSplineSet
EndChar

StartChar: question
Encoding: 63 63 34
Width: 581
Flags: HW
LayerCount: 2
Fore
SplineSet
283 223 m 1,0,1
 300 292 300 292 352 350 c 0,2,3
 380 382 380 382 421 410 c 128,-1,4
 462 438 462 438 482 452.5 c 128,-1,5
 502 467 502 467 518 484 c 0,6,7
 554 522 554 522 565 576 c 0,8,9
 568 590 568 590 568 602 c 0,10,11
 568 639 568 639 543 665 c 0,12,13
 509 700 509 700 416 700 c 0,14,15
 325 700 325 700 211 650 c 1,16,-1
 225 719 l 1,17,18
 309 751 309 751 427 751 c 0,19,20
 600 752 600 752 634 656 c 0,21,22
 641 636 641 636 641 614 c 0,23,24
 642 598 642 598 638 582 c 0,25,26
 630 542 630 542 614 517 c 128,-1,27
 598 492 598 492 578 471 c 0,28,29
 545 437 545 437 490 401.5 c 128,-1,30
 435 366 435 366 390 324 c 128,-1,31
 345 282 345 282 323 223 c 1,32,-1
 283 223 l 1,0,1
236 83 m 1,33,-1
 320 83 l 1,34,-1
 302 -1 l 1,35,-1
 218 -1 l 1,36,-1
 236 83 l 1,33,-1
EndSplineSet
EndChar

StartChar: at
Encoding: 64 64 35
Width: 817
Flags: HW
LayerCount: 2
Fore
SplineSet
506 399 m 1,0,1
 474 440 474 440 440 462 c 0,2,3
 424 472 424 472 409 472 c 0,4,5
 344 472 344 472 344 358 c 0,6,7
 344 315 344 315 362.5 294.5 c 128,-1,8
 381 274 381 274 413 274 c 0,9,10
 438 274 438 274 466 298 c 0,11,12
 493 321 493 321 497 347 c 2,13,-1
 506 399 l 1,0,1
789 38 m 1,14,15
 635 -18 635 -18 436 -18 c 0,16,17
 242 -18 242 -18 141 89 c 0,18,19
 49 187 49 187 49 352 c 0,20,21
 49 359 49 359 49 366 c 1,22,23
 48 542 48 542 158 648 c 0,24,25
 265 752 265 752 435 752 c 0,26,27
 598 752 598 752 698 675 c 0,28,29
 806 591 806 591 806 441 c 0,30,31
 806 348 806 348 765 286 c 0,32,33
 715 210 715 210 613 210 c 1,34,35
 546 210 546 210 508 257 c 0,36,37
 498 269 498 269 494 279 c 1,38,39
 463 223 463 223 394 223 c 0,40,41
 278 223 278 223 278 365 c 0,42,43
 278 472 278 472 344 512 c 0,44,45
 366 526 366 526 387 526 c 128,-1,46
 408 526 408 526 422 522 c 128,-1,47
 436 518 436 518 452 510 c 0,48,49
 487 492 487 492 513 456 c 1,50,51
 515 469 515 469 529 518 c 0,52,53
 530 518 530 518 530.5 517.5 c 128,-1,54
 531 517 531 517 535.5 515.5 c 128,-1,55
 540 514 540 514 549.5 510.5 c 128,-1,56
 559 507 559 507 579 500 c 1,57,58
 573 456 573 456 565.5 405.5 c 128,-1,59
 558 355 558 355 558 313 c 0,60,61
 558 252 558 252 619 252 c 0,62,63
 673 252 673 252 703 310 c 0,64,65
 730 362 730 362 730 437.5 c 128,-1,66
 730 513 730 513 704 561 c 0,67,68
 678 608 678 608 636 640 c 0,69,70
 551 704 551 704 432 704 c 0,71,72
 337 704 337 704 262 662 c 0,73,74
 183 616 183 616 147 508 c 0,75,76
 128 450 128 450 128 364.5 c 128,-1,77
 128 279 128 279 148 220 c 128,-1,78
 168 161 168 161 200 123.5 c 128,-1,79
 232 86 232 86 271 66.5 c 0,80,81
 310 46 310 46 348 38 c 0,82,83
 396 28 396 28 454 28 c 128,-1,84
 512 28 512 28 553.5 35.5 c 128,-1,85
 595 43 595 43 636 56 c 0,86,87
 716 81 716 81 789 123 c 1,88,-1
 789 38 l 1,14,15
EndSplineSet
EndChar

StartChar: A
Encoding: 65 65 36
Width: 640
Flags: HW
LayerCount: 2
Fore
SplineSet
483 682 m 1,0,-1
 263 314 l 1,1,-1
 532 314 l 1,2,-1
 483 682 l 1,0,-1
444 715 m 1,3,-1
 535 715 l 1,4,-1
 635 0 l 1,5,-1
 569 0 l 1,6,-1
 536 272 l 1,7,-1
 244 272 l 1,8,-1
 76 0 l 1,9,-1
 11 0 l 1,10,-1
 444 715 l 1,3,-1
EndSplineSet
EndChar

StartChar: B
Encoding: 66 66 37
Width: 685
Flags: HW
LayerCount: 2
Fore
SplineSet
165 33 m 1,0,-1
 313 26 l 1,1,2
 323 26 323 26 333 26 c 0,3,4
 532 26 532 26 588 128 c 0,5,6
 606 162 606 162 616 202 c 0,7,8
 620 221 620 221 620 239 c 0,9,10
 620 256 620 256 615 272 c 0,11,12
 606 302 606 302 583 324 c 0,13,14
 536 367 536 367 440 367 c 2,15,-1
 236 367 l 1,16,-1
 165 33 l 1,0,-1
404 412 m 2,17,18
 506 412 506 412 557.5 441.5 c 0,19,20
 608 472 608 472 622 536 c 0,21,22
 626 554 626 554 626 569 c 0,23,24
 626 610 626 610 601 636 c 0,25,26
 566 672 566 672 466 671 c 2,27,-1
 300 671 l 1,28,-1
 245 412 l 1,29,-1
 404 412 l 2,17,18
94 -1 m 1,30,-1
 244 714 l 1,31,-1
 474 714 l 2,32,33
 678 714 678 714 700 607 c 0,34,35
 703 592 703 592 703 577 c 0,36,37
 702 558 702 558 698 540 c 0,38,39
 690 506 690 506 674.5 481.5 c 0,40,41
 660 457 660 457 636 439 c 0,42,43
 589 403 589 403 522 395 c 1,44,45
 665 371 665 371 693 275 c 0,46,47
 698 258 698 258 698 238 c 0,48,49
 698 219 698 219 694 198 c 0,50,51
 684 155 684 155 663.5 116.5 c 128,-1,52
 643 78 643 78 605 48 c 0,53,54
 526 -14 526 -14 376 -13 c 0,55,56
 367 -13 367 -13 359 -13 c 1,57,58
 178 -10 178 -10 94 -1 c 1,30,-1
EndSplineSet
EndChar

StartChar: C
Encoding: 67 67 38
Width: 680
Flags: HW
LayerCount: 2
Fore
SplineSet
433 706.5 m 0,0,1
 504 731 504 731 568 731 c 0,2,3
 661 731 661 731 766 698 c 1,4,-1
 753 637 l 1,5,6
 711 659 711 659 667.5 674 c 128,-1,7
 624 689 624 689 572 689 c 0,8,9
 500 689 500 689 418 645 c 0,10,11
 332 600 332 600 270 494 c 0,12,13
 236 438 236 438 216 355 c 1,14,15
 205 300 205 300 205 254 c 0,16,17
 204 177 204 177 236 124 c 0,18,19
 274 62 274 62 350 40 c 0,20,21
 386 30 386 30 439 30 c 0,22,23
 532 30 532 30 647 108 c 1,24,-1
 633 39 l 1,25,26
 528 -21 528 -21 430 -21 c 128,-1,27
 332 -21 332 -21 270.5 8.5 c 0,28,29
 210 38 210 38 174 89 c 0,30,31
 125 160 125 160 124 259 c 0,32,33
 124 303 124 303 134 354 c 1,34,35
 171 530 171 530 301 634 c 0,36,37
 361 682 361 682 433 706.5 c 0,0,1
EndSplineSet
EndChar

StartChar: D
Encoding: 68 68 39
Width: 682
Flags: HW
LayerCount: 2
Fore
SplineSet
174 83 m 2,0,1
 170 62 170 62 170 54 c 0,2,3
 170 44 170 44 177 44 c 0,4,5
 182 44 182 44 191 44 c 2,6,-1
 282 44 l 2,7,8
 392 44 392 44 484 110 c 0,9,10
 601 194 601 194 635 355 c 0,11,12
 645 401 645 401 645 440 c 0,13,14
 646 474 646 474 638 502 c 0,15,16
 622 562 622 562 587.5 600 c 128,-1,17
 553 638 553 638 506.5 655.5 c 128,-1,18
 460 673 460 673 404 673 c 0,19,20
 300 673 300 673 298 665 c 2,21,-1
 174 83 l 2,0,1
424 716 m 2,22,23
 524 716 524 716 586 680 c 128,-1,24
 648 644 648 644 680.5 589.5 c 0,25,26
 714 535 714 535 720 472 c 0,27,28
 722 449 722 449 722 428 c 0,29,30
 722 390 722 390 714 355 c 0,31,32
 702 301 702 301 672.5 238.5 c 128,-1,33
 643 176 643 176 590.5 123.5 c 128,-1,34
 538 71 538 71 459.5 36 c 128,-1,35
 381 1 381 1 273 1 c 2,36,-1
 92 1 l 1,37,-1
 244 716 l 1,38,-1
 424 716 l 2,22,23
EndSplineSet
EndChar

StartChar: E
Encoding: 69 69 40
Width: 568
Flags: HW
LayerCount: 2
Fore
SplineSet
245 714 m 1,0,-1
 660 714 l 1,1,-1
 651 672 l 1,2,-1
 299 672 l 1,3,-1
 238 385 l 1,4,-1
 499 385 l 1,5,-1
 490 342 l 1,6,-1
 229 342 l 1,7,-1
 166 43 l 1,8,-1
 542 43 l 1,9,-1
 533 0 l 1,10,-1
 94 0 l 1,11,-1
 245 714 l 1,0,-1
EndSplineSet
EndChar

StartChar: F
Encoding: 70 70 41
Width: 579
Flags: HW
LayerCount: 2
Fore
SplineSet
245 714 m 1,0,-1
 707 714 l 1,1,-1
 698 670 l 1,2,-1
 300 670 l 1,3,-1
 239 385 l 1,4,-1
 486 385 l 1,5,-1
 476 335 l 1,6,-1
 229 335 l 1,7,-1
 158 0 l 1,8,-1
 94 0 l 1,9,-1
 245 714 l 1,0,-1
EndSplineSet
EndChar

StartChar: G
Encoding: 71 71 42
Width: 794
Flags: HW
LayerCount: 2
Fore
SplineSet
805 301 m 1,0,-1
 750 38 l 1,1,2
 562 -20 562 -20 431 -20 c 1,3,4
 427 -20 427 -20 424 -20 c 0,5,6
 228 -20 228 -20 156 84 c 0,7,8
 115 144 115 144 115 237 c 0,9,10
 115 292 115 292 129 359 c 256,11,12
 166 532 166 532 284 630 c 0,13,14
 407 732 407 732 580 732 c 0,15,16
 710 732 710 732 802 706 c 0,17,18
 824 700 824 700 834 695 c 1,19,-1
 820 628 l 1,20,21
 799 636 799 636 776 646.5 c 0,22,23
 752 657 752 657 724 666 c 0,24,25
 654 688 654 688 575 688 c 128,-1,26
 496 688 496 688 434.5 662 c 0,27,28
 372 636 372 636 326 590 c 0,29,30
 234 500 234 500 203 353 c 0,31,32
 191 296 191 296 191 249 c 0,33,34
 191 174 191 174 222 122 c 0,35,36
 260 60 260 60 342 40 c 0,37,38
 383 30 383 30 448 30 c 0,39,40
 590 30 590 30 695 91 c 1,41,-1
 739 301 l 1,42,-1
 805 301 l 1,0,-1
EndSplineSet
EndChar

StartChar: H
Encoding: 72 72 43
Width: 750
Flags: HW
LayerCount: 2
Fore
SplineSet
768 715 m 1,0,-1
 833 715 l 1,1,-1
 682 0 l 1,2,-1
 617 0 l 1,3,-1
 688 336 l 1,4,-1
 236 336 l 1,5,-1
 165 0 l 1,6,-1
 93 0 l 1,7,-1
 244 715 l 1,8,-1
 316 715 l 1,9,-1
 245 381 l 1,10,-1
 697 381 l 1,11,-1
 768 715 l 1,0,-1
EndSplineSet
EndChar

StartChar: I
Encoding: 73 73 44
Width: 259
Flags: HW
LayerCount: 2
Fore
SplineSet
254 715 m 1,0,-1
 318 715 l 1,1,-1
 167 0 l 1,2,-1
 103 0 l 1,3,-1
 254 715 l 1,0,-1
EndSplineSet
EndChar

StartChar: J
Encoding: 74 74 45
Width: 272
Flags: HW
LayerCount: 2
Fore
SplineSet
335 716 m 1,0,-1
 178 -22 l 2,1,2
 158 -116 158 -116 102 -163 c 0,3,4
 64 -195 64 -195 17 -204 c 1,5,-1
 25 -167 l 1,6,7
 64 -135 64 -135 85 -102.5 c 128,-1,8
 106 -70 106 -70 116 -22 c 2,9,-1
 273 716 l 1,10,-1
 335 716 l 1,0,-1
EndSplineSet
EndChar

StartChar: K
Encoding: 75 75 46
Width: 626
Flags: HW
LayerCount: 2
Fore
SplineSet
653 715 m 1,0,-1
 721 715 l 1,1,-1
 427 436 l 1,2,-1
 624 0 l 1,3,-1
 546 0 l 1,4,-1
 373 384 l 1,5,-1
 199 230 l 1,6,-1
 151 0 l 1,7,-1
 87 0 l 1,8,-1
 238 715 l 1,9,-1
 302 715 l 1,10,-1
 216 307 l 1,11,-1
 653 715 l 1,0,-1
EndSplineSet
EndChar

StartChar: L
Encoding: 76 76 47
Width: 535
Flags: HW
LayerCount: 2
Fore
SplineSet
540 45 m 1,0,-1
 531 0 l 1,1,-1
 94 0 l 1,2,-1
 245 715 l 1,3,-1
 311 715 l 1,4,-1
 175 71 l 2,5,6
 170 51 170 51 172 48 c 128,-1,7
 174 45 174 45 191 45 c 2,8,-1
 540 45 l 1,0,-1
EndSplineSet
EndChar

StartChar: M
Encoding: 77 77 48
Width: 920
Flags: HW
LayerCount: 2
Fore
SplineSet
934 675 m 1,0,-1
 535 84 l 1,1,-1
 461 84 l 1,2,-1
 301 674 l 1,3,-1
 155 0 l 1,4,-1
 92 0 l 1,5,-1
 243 715 l 1,6,-1
 365 715 l 1,7,-1
 494 179 l 2,8,9
 497 164 497 164 503 159 c 128,-1,10
 509 154 509 154 516 156 c 0,11,12
 529 159 529 159 543 179 c 0,13,14
 635 321 635 321 719 448.5 c 128,-1,15
 803 576 803 576 826 611 c 128,-1,16
 849 646 849 646 863 666 c 0,17,18
 888 703 888 703 894 715 c 1,19,-1
 1007 715 l 1,20,-1
 856 0 l 1,21,-1
 792 0 l 1,22,-1
 934 675 l 1,0,-1
EndSplineSet
EndChar

StartChar: N
Encoding: 78 78 49
Width: 711
Flags: HW
LayerCount: 2
Fore
SplineSet
242 714 m 1,0,-1
 337 714 l 1,1,-1
 599 76 l 1,2,-1
 734 714 l 1,3,-1
 800 714 l 1,4,-1
 649 0 l 1,5,-1
 574 0 l 1,6,-1
 298 673 l 1,7,-1
 155 0 l 1,8,-1
 91 0 l 1,9,-1
 242 714 l 1,0,-1
EndSplineSet
EndChar

StartChar: O
Encoding: 79 79 50
Width: 824
Flags: HW
LayerCount: 2
Fore
SplineSet
248.5 495 m 128,-1,1
 218 439 218 439 200 355 c 0,2,3
 187 293 187 293 187 246 c 0,4,5
 186 229 186 229 188 213 c 0,6,7
 194 155 194 155 216 118.5 c 128,-1,8
 238 82 238 82 269.5 62.5 c 128,-1,9
 301 43 301 43 332 35 c 0,10,11
 371 25 371 25 405 25 c 128,-1,12
 439 25 439 25 466 26.5 c 128,-1,13
 493 28 493 28 529 37.5 c 128,-1,14
 565 47 565 47 606.5 67 c 128,-1,15
 648 87 648 87 687 124 c 0,16,17
 777 209 777 209 807 357 c 1,18,19
 819 413 819 413 819 461 c 0,20,21
 819 539 819 539 786 592 c 0,22,23
 748 653 748 653 664 676 c 0,24,25
 624 687 624 687 590.5 687 c 128,-1,26
 557 687 557 687 530 685.5 c 128,-1,27
 503 684 503 684 467.5 674.5 c 128,-1,28
 432 665 432 665 392.5 645 c 128,-1,29
 353 625 353 625 316 588 c 128,-1,0
 279 551 279 551 248.5 495 c 128,-1,1
579 731 m 1,30,31
 774 728 774 728 844 634 c 0,32,33
 889 574 889 574 888 477 c 0,34,35
 888 422 888 422 874 356 c 0,36,37
 818 91 818 91 598 9 c 0,38,39
 520 -20 520 -20 418 -20 c 128,-1,40
 316 -20 316 -20 250.5 7 c 128,-1,41
 185 34 185 34 151 84 c 0,42,43
 110 144 110 144 110 238 c 0,44,45
 110 293 110 293 124 359 c 0,46,47
 161 540 161 540 280 634 c 128,-1,48
 399 728 399 728 579 731 c 1,30,31
EndSplineSet
EndChar

StartChar: P
Encoding: 80 80 51
Width: 616
Flags: HW
LayerCount: 2
Fore
SplineSet
232 347 m 1,0,-1
 414 347 l 2,1,2
 506 348 506 348 568 410 c 0,3,4
 612 454 612 454 625 505 c 1,5,6
 629 528 629 528 629 547 c 0,7,8
 628 622 628 622 566 655 c 0,9,10
 536 671 536 671 483 671 c 2,11,-1
 301 671 l 1,12,-1
 232 347 l 1,0,-1
492 715 m 2,13,14
 623 714 623 714 675 646 c 0,15,16
 706 605 706 605 706 550 c 0,17,18
 706 528 706 528 701 505 c 0,19,20
 685 426 685 426 618 369 c 0,21,22
 539 301 539 301 404 301 c 2,23,-1
 222 301 l 1,24,-1
 158 -1 l 1,25,-1
 94 -1 l 1,26,-1
 246 714 l 1,27,-1
 492 715 l 2,13,14
EndSplineSet
EndChar

StartChar: Q
Encoding: 81 81 52
Width: 821
Flags: HW
LayerCount: 2
Fore
SplineSet
247.5 492 m 128,-1,1
 217 436 217 436 199 352 c 0,2,3
 186 292 186 292 186 245 c 0,4,5
 186 227 186 227 188 210 c 0,6,7
 195 152 195 152 216 115.5 c 128,-1,8
 237 79 237 79 268.5 59.5 c 128,-1,9
 300 40 300 40 332 32 c 0,10,11
 371 22 371 22 404.5 22 c 128,-1,12
 438 22 438 22 465.5 23.5 c 128,-1,13
 493 25 493 25 529 34.5 c 128,-1,14
 565 44 565 44 606 64 c 0,15,16
 648 84 648 84 686 121 c 0,17,18
 774 206 774 206 806 354 c 0,19,20
 818 410 818 410 818 458 c 0,21,22
 818 536 818 536 786 589 c 0,23,24
 749 650 749 650 664 673 c 0,25,26
 609 684 609 684 590 684 c 1,27,28
 556 684 556 684 529 682.5 c 128,-1,29
 502 681 502 681 466.5 671.5 c 128,-1,30
 431 662 431 662 392 642 c 128,-1,31
 353 622 353 622 315.5 585 c 128,-1,0
 278 548 278 548 247.5 492 c 128,-1,1
578 728 m 1,32,33
 774 725 774 725 844 631 c 0,34,35
 889 571 889 571 888 474 c 0,36,37
 888 419 888 419 874 353 c 1,38,39
 837 188 837 188 739 96 c 0,40,41
 625 -10 625 -10 441 -23 c 1,42,-1
 434 -56 l 2,43,44
 430 -74 430 -74 430 -90 c 0,45,46
 430 -132 430 -132 457 -160 c 0,47,48
 487 -191 487 -191 531 -196 c 1,49,-1
 529 -207 l 1,50,51
 469 -204 469 -204 437.5 -184.5 c 128,-1,52
 406 -165 406 -165 393 -141 c 128,-1,53
 380 -117 380 -117 380 -93 c 128,-1,54
 380 -69 380 -69 383 -55 c 2,55,-1
 390 -23 l 1,56,57
 210 -10 210 -10 146 94 c 0,58,59
 109 154 109 154 110 242 c 0,60,61
 110 293 110 293 122 353 c 1,62,63
 161 537 161 537 280 631 c 128,-1,64
 399 725 399 725 578 728 c 1,32,33
EndSplineSet
EndChar

StartChar: R
Encoding: 82 82 53
Width: 662
Flags: HW
LayerCount: 2
Fore
SplineSet
416 397 m 2,0,1
 504 397 504 397 560 444 c 0,2,3
 604 481 604 481 614 535 c 1,4,5
 617 552 617 552 617 566 c 0,6,7
 617 630 617 630 551 658 c 0,8,9
 521 670 521 670 474 671 c 2,10,-1
 297 671 l 1,11,-1
 239 397 l 1,12,-1
 416 397 l 2,0,1
483 715 m 2,13,14
 601 715 601 715 652 666 c 0,15,16
 688 631 688 631 688 580 c 0,17,18
 688 563 688 563 684 544 c 0,19,20
 667 467 667 467 606 419 c 0,21,22
 555 379 555 379 493 372 c 1,23,24
 554 357 554 357 570 295 c 0,25,26
 574 277 574 277 578 257 c 2,27,-1
 627 0 l 1,28,-1
 561 0 l 1,29,30
 540 114 540 114 527 181 c 128,-1,31
 514 248 514 248 511 265 c 0,32,33
 502 315 502 315 482.5 331.5 c 128,-1,34
 463 348 463 348 429 348 c 2,35,-1
 228 348 l 1,36,-1
 155 0 l 1,37,-1
 92 0 l 1,38,-1
 243 715 l 1,39,-1
 483 715 l 2,13,14
EndSplineSet
EndChar

StartChar: S
Encoding: 83 83 54
Width: 588
Flags: HW
LayerCount: 2
Fore
SplineSet
666 638 m 1,0,1
 606 669 606 669 567 677 c 0,2,3
 507 688 507 688 461.5 688 c 128,-1,4
 416 688 416 688 383.5 679 c 0,5,6
 352 670 352 670 324 652 c 0,7,8
 265 613 265 613 251 550 c 1,9,10
 248 534 248 534 248 520 c 0,11,12
 248 480 248 480 272 455 c 0,13,14
 302 424 302 424 376 403 c 1,15,16
 415 390 415 390 457.5 373.5 c 0,17,18
 500 356 500 356 533 330 c 0,19,20
 593 281 593 281 593 210 c 0,21,22
 593 191 593 191 589 170 c 0,23,24
 566 65 566 65 456 16 c 0,25,26
 376 -20 376 -20 283 -20 c 128,-1,27
 190 -20 190 -20 138 0 c 128,-1,28
 86 20 86 20 64 38 c 1,29,-1
 78 104 l 1,30,31
 134 55 134 55 222 35 c 0,32,33
 253 28 253 28 291 28 c 128,-1,34
 329 28 329 28 367 39 c 128,-1,35
 405 50 405 50 435 70 c 0,36,37
 499 112 499 112 513 170 c 1,38,39
 517 193 517 193 517 213 c 0,40,41
 518 263 518 263 460 302 c 0,42,43
 428 324 428 324 370.5 340.5 c 128,-1,44
 313 357 313 357 272.5 375.5 c 128,-1,45
 232 394 232 394 207 419 c 0,46,47
 168 458 168 458 168 511 c 0,48,49
 168 530 168 530 173 551 c 1,50,51
 188 625 188 625 263 676 c 0,52,53
 344 731 344 731 460 731 c 0,54,55
 585 732 585 732 647 704 c 0,56,57
 664 696 664 696 677 689 c 1,58,-1
 666 638 l 1,0,1
EndSplineSet
EndChar

StartChar: T
Encoding: 84 84 55
Width: 616
Flags: HW
LayerCount: 2
Fore
SplineSet
764 673 m 1,0,-1
 497 673 l 1,1,-1
 354 0 l 1,2,-1
 287 0 l 1,3,-1
 430 673 l 1,4,-1
 155 673 l 1,5,-1
 164 716 l 1,6,-1
 773 716 l 1,7,-1
 764 673 l 1,0,-1
EndSplineSet
EndChar

StartChar: U
Encoding: 85 85 56
Width: 717
Flags: HW
LayerCount: 2
Fore
SplineSet
794 715 m 1,0,-1
 708 306 l 1,1,2
 689 220 689 220 672 180 c 128,-1,3
 655 140 655 140 632 106 c 128,-1,4
 609 72 609 72 573 46 c 0,5,6
 494 -12 494 -12 366 -13 c 0,7,8
 236 -13 236 -13 180 46 c 0,9,10
 134 94 134 94 135 181 c 0,11,12
 135 214 135 214 141 250 c 0,13,14
 147 286 147 286 153 314 c 2,15,-1
 238 715 l 1,16,-1
 303 715 l 1,17,-1
 217 306 l 1,18,19
 204 252 204 252 204 206 c 0,20,21
 204 174 204 174 210 146 c 0,22,23
 224 80 224 80 288 50 c 0,24,25
 322 34 322 34 375.5 34 c 128,-1,26
 429 34 429 34 468 49.5 c 128,-1,27
 507 65 507 65 536 90 c 128,-1,28
 565 115 565 115 584 145.5 c 128,-1,29
 603 176 603 176 615.5 206.5 c 128,-1,30
 628 237 628 237 634.5 263.5 c 128,-1,31
 641 290 641 290 645 306 c 2,32,-1
 731 715 l 1,33,-1
 794 715 l 1,0,-1
EndSplineSet
EndChar

StartChar: V
Encoding: 86 86 57
Width: 683
Flags: HW
LayerCount: 2
Fore
SplineSet
379 0 m 1,0,-1
 282 0 l 1,1,-1
 172 715 l 1,2,-1
 242 715 l 1,3,-1
 340 46 l 1,4,-1
 722 715 l 1,5,-1
 801 715 l 1,6,-1
 379 0 l 1,0,-1
EndSplineSet
EndChar

StartChar: W
Encoding: 87 87 58
Width: 1060
Flags: HW
LayerCount: 2
Fore
SplineSet
243 715 m 1,0,-1
 344 49 l 1,1,-1
 657 715 l 1,2,-1
 739 715 l 1,3,-1
 765 47 l 1,4,-1
 1144 715 l 1,5,-1
 1220 715 l 1,6,-1
 809 0 l 1,7,-1
 712 0 l 1,8,-1
 691 679 l 1,9,-1
 380 0 l 1,10,-1
 283 0 l 1,11,-1
 169 715 l 1,12,-1
 243 715 l 1,0,-1
EndSplineSet
EndChar

StartChar: X
Encoding: 88 88 59
Width: 683
Flags: HW
LayerCount: 2
Fore
SplineSet
395 368 m 1,0,-1
 199 715 l 1,1,-1
 277 715 l 1,2,-1
 438 417 l 1,3,-1
 727 715 l 1,4,-1
 805 715 l 1,5,-1
 469 368 l 1,6,-1
 668 -1 l 1,7,-1
 599 -1 l 1,8,-1
 418 320 l 1,9,-1
 101 -1 l 1,10,-1
 31 -1 l 1,11,-1
 395 368 l 1,0,-1
EndSplineSet
EndChar

StartChar: Y
Encoding: 89 89 60
Width: 690
Flags: HW
LayerCount: 2
Fore
SplineSet
180 715 m 1,0,-1
 253 715 l 1,1,-1
 419 319 l 1,2,-1
 756 715 l 1,3,-1
 830 715 l 1,4,-1
 446 268 l 1,5,-1
 389 -1 l 1,6,-1
 317 -1 l 1,7,-1
 374 268 l 1,8,-1
 180 715 l 1,0,-1
EndSplineSet
EndChar

StartChar: Z
Encoding: 90 90 61
Width: 655
Flags: HW
LayerCount: 2
Fore
SplineSet
651 50 m 1,0,-1
 641 0 l 1,1,-1
 34 0 l 1,2,-1
 48 67 l 1,3,-1
 724 672 l 1,4,-1
 176 672 l 1,5,-1
 185 715 l 1,6,-1
 792 715 l 1,7,-1
 778 649 l 1,8,-1
 112 50 l 1,9,-1
 651 50 l 1,0,-1
EndSplineSet
EndChar

StartChar: bracketleft
Encoding: 91 91 62
Width: 324
Flags: HW
LayerCount: 2
Fore
SplineSet
472 705 m 1,0,-1
 314 705 l 1,1,-1
 129 -169 l 1,2,-1
 287 -169 l 1,3,-1
 277 -213 l 1,4,-1
 44 -213 l 1,5,-1
 249 750 l 1,6,-1
 482 750 l 1,7,-1
 472 705 l 1,0,-1
EndSplineSet
EndChar

StartChar: backslash
Encoding: 92 92 63
Width: 347
Flags: HW
LayerCount: 2
Fore
SplineSet
166 753 m 1,0,-1
 213 753 l 1,1,-1
 352 -19 l 1,2,-1
 305 -19 l 1,3,-1
 166 753 l 1,0,-1
EndSplineSet
EndChar

StartChar: bracketright
Encoding: 93 93 64
Width: 324
Flags: HW
LayerCount: 2
Fore
SplineSet
406 750 m 1,0,-1
 201 -212 l 1,1,-1
 -30 -212 l 1,2,-1
 -20 -166 l 1,3,-1
 137 -166 l 1,4,-1
 322 705 l 1,5,-1
 164 705 l 1,6,-1
 174 750 l 1,7,-1
 406 750 l 1,0,-1
EndSplineSet
EndChar

StartChar: asciicircum
Encoding: 94 94 65
Width: 602
Flags: HW
LayerCount: 2
Fore
SplineSet
73 289 m 1,0,-1
 298 710 l 1,1,-1
 298 711 l 1,2,-1
 334 711 l 1,3,4
 369 634 369 634 423 538 c 0,5,6
 519 366 519 366 562 281 c 1,7,-1
 515 281 l 1,8,-1
 316 674 l 1,9,10
 261 557 261 557 217 474 c 0,11,12
 146 340 146 340 124 290 c 1,13,-1
 73 289 l 1,0,-1
EndSplineSet
EndChar

StartChar: underscore
Encoding: 95 95 66
Width: 500
Flags: HW
LayerCount: 2
Fore
SplineSet
485 -120 m 1,0,-1
 481 -139 l 1,1,-1
 -19 -139 l 1,2,-1
 -15 -120 l 1,3,-1
 485 -120 l 1,0,-1
EndSplineSet
EndChar

StartChar: grave
Encoding: 96 96 67
Width: 222
Flags: HW
LayerCount: 2
Fore
SplineSet
241 751 m 1,0,-1
 267 639 l 1,1,-1
 225 639 l 1,2,-1
 163 751 l 1,3,-1
 241 751 l 1,0,-1
EndSplineSet
EndChar

StartChar: a
Encoding: 97 97 68
Width: 538
Flags: HW
LayerCount: 2
Fore
SplineSet
180 49 m 0,0,1
 197 28 197 28 239.5 28 c 128,-1,2
 282 28 282 28 321 48 c 128,-1,3
 360 68 360 68 390 98 c 0,4,5
 448 157 448 157 462 224 c 2,6,-1
 509 447 l 1,7,8
 480 464 480 464 456 473 c 128,-1,9
 432 482 432 482 385 482 c 128,-1,10
 338 482 338 482 299.5 462 c 128,-1,11
 261 442 261 442 236 410 c 0,12,13
 182 340 182 340 160 178 c 0,14,15
 157 153 157 153 157 132 c 0,16,17
 157 77 157 77 180 49 c 0,0,1
480 1 m 1,18,-1
 428 1 l 1,19,-1
 439 106 l 1,20,21
 433 92 433 92 413.5 71.5 c 0,22,23
 394 52 394 52 366 32 c 0,24,25
 297 -15 297 -15 226 -16 c 0,26,27
 132 -16 132 -16 106 58 c 0,28,29
 95 89 95 89 96 133 c 0,30,31
 96 187 96 187 111 262 c 0,32,33
 140 399 140 399 211 466.5 c 128,-1,34
 282 534 282 534 411 534 c 0,35,36
 456 534 456 534 490.5 521 c 128,-1,37
 525 508 525 508 543.5 500 c 128,-1,38
 562 492 562 492 582 488 c 1,39,-1
 480 1 l 1,18,-1
EndSplineSet
EndChar

StartChar: b
Encoding: 98 98 69
Width: 514
Flags: HW
LayerCount: 2
Fore
SplineSet
132 63 m 1,0,1
 188 29 188 29 251.5 29 c 128,-1,2
 315 29 315 29 350.5 52 c 128,-1,3
 386 75 386 75 411 111 c 0,4,5
 450 168 450 168 474 275 c 0,6,7
 488 343 488 343 488 383 c 0,8,9
 488 398 488 398 486 409 c 0,10,11
 479 450 479 450 461.5 469 c 128,-1,12
 444 488 444 488 411 488 c 128,-1,13
 378 488 378 488 348.5 474.5 c 128,-1,14
 319 461 319 461 293.5 439.5 c 128,-1,15
 268 418 268 418 247.5 391 c 0,16,17
 226 364 226 364 210 336 c 0,18,19
 176 280 176 280 170 241 c 1,20,-1
 132 63 l 1,0,1
218 794 m 1,21,-1
 285 794 l 1,22,-1
 198 384 l 1,23,24
 224 439 224 439 283 482 c 0,25,26
 353 533 353 533 422 533 c 0,27,28
 555 533 555 533 555 381 c 0,29,30
 555 335 555 335 543 275 c 1,31,32
 511 125 511 125 438 56.5 c 128,-1,33
 365 -12 365 -12 238 -12 c 0,34,35
 140 -12 140 -12 57 25 c 1,36,-1
 218 794 l 1,21,-1
EndSplineSet
EndChar

StartChar: c
Encoding: 99 99 70
Width: 509
Flags: HW
LayerCount: 2
Fore
SplineSet
512 73 m 1,0,1
 506 47 506 47 504.5 35.5 c 128,-1,2
 503 24 503 24 501 15 c 1,3,4
 452 1 452 1 410.5 -7.5 c 128,-1,5
 369 -16 369 -16 319 -16 c 0,6,7
 184 -16 184 -16 131 52 c 0,8,9
 97 95 97 95 97 169 c 0,10,11
 97 211 97 211 108 263 c 1,12,13
 141 410 141 410 225 474 c 0,14,15
 303 532 303 532 436 532 c 0,16,17
 521 532 521 532 591 488 c 1,18,-1
 580 435 l 1,19,20
 542 454 542 454 505 470 c 128,-1,21
 468 486 468 486 427.5 486 c 128,-1,22
 387 486 387 486 348 477.5 c 128,-1,23
 309 469 309 469 276 445 c 0,24,25
 203 392 203 392 176 265 c 0,26,27
 165 216 165 216 165 177 c 0,28,29
 165 111 165 111 196 75 c 0,30,31
 234 30 234 30 324 30 c 128,-1,32
 414 30 414 30 512 73 c 1,0,1
EndSplineSet
EndChar

StartChar: d
Encoding: 100 100 71
Width: 538
Flags: HW
LayerCount: 2
Fore
SplineSet
519 448 m 1,0,1
 500 458 500 458 462 470 c 0,2,3
 383 490 383 490 362 491 c 1,4,5
 326 491 326 491 299 477.5 c 128,-1,6
 272 464 272 464 252 442.5 c 128,-1,7
 232 421 232 421 218.5 394.5 c 128,-1,8
 205 368 205 368 196 342.5 c 128,-1,9
 187 317 187 317 182 295.5 c 128,-1,10
 177 274 177 274 172 252 c 0,11,12
 166 230 166 230 162 190 c 0,13,14
 160 174 160 174 161 158 c 0,15,16
 160 136 160 136 164 115 c 0,17,18
 170 80 170 80 191.5 56 c 128,-1,19
 213 32 213 32 257 32 c 0,20,21
 429 32 429 32 470 222 c 2,22,-1
 519 448 l 1,0,1
371 537 m 0,23,24
 442 537 442 537 530 501 c 1,25,-1
 592 793 l 1,26,-1
 659 793 l 1,27,-1
 490 -4 l 1,28,-1
 427 -4 l 1,29,30
 429 4 429 4 429 15 c 0,31,32
 430 30 430 30 438 68 c 1,33,34
 408 33 408 33 359.5 10.5 c 128,-1,35
 311 -12 311 -12 259 -12 c 128,-1,36
 207 -12 207 -12 174 2 c 128,-1,37
 141 16 141 16 121 48 c 0,38,39
 95 90 95 90 95 157 c 0,40,41
 95 203 95 203 107 261 c 0,42,43
 136 402 136 402 214 474 c 0,44,45
 282 537 282 537 371 537 c 0,23,24
EndSplineSet
EndChar

StartChar: e
Encoding: 101 101 72
Width: 521
Flags: HW
LayerCount: 2
Fore
SplineSet
499 306 m 1,0,1
 504 335 504 335 504 361 c 0,2,3
 504 401 504 401 492 431 c 1,4,5
 470 486 470 486 391 486 c 0,6,7
 271 486 271 486 215 372 c 0,8,9
 199 340 199 340 191 305 c 1,10,-1
 499 306 l 1,0,1
500 71 m 1,11,12
 407 -16 407 -16 284 -16 c 0,13,14
 98 -16 98 -16 94 138 c 0,15,16
 94 143 94 143 94 149 c 0,17,18
 94 194 94 194 105 247 c 0,19,20
 133 381 133 381 206 456.5 c 128,-1,21
 279 532 279 532 401 532 c 0,22,23
 562 532 562 532 562 371 c 0,24,25
 562 324 562 324 548 263 c 1,26,-1
 175 264 l 1,27,28
 163 212 163 212 158 168 c 0,29,30
 156 154 156 154 156 140 c 0,31,32
 156 114 156 114 163 92 c 0,33,34
 184 25 184 25 293 25 c 0,35,36
 345 25 345 25 398 54 c 0,37,38
 433 73 433 73 463 106 c 1,39,40
 500 71 l 1,11,12
EndSplineSet
EndChar

StartChar: f
Encoding: 102 102 73
Width: 322
Flags: HW
LayerCount: 2
Fore
SplineSet
571 697 m 1,0,1
 520 727 520 727 467 727 c 128,-1,2
 414 727 414 727 384 714.5 c 128,-1,3
 354 702 354 702 337 680.5 c 128,-1,4
 320 659 320 659 312 629 c 128,-1,5
 304 599 304 599 296 563 c 2,6,-1
 287 518 l 1,7,-1
 416 518 l 1,8,-1
 406 475 l 1,9,-1
 277 475 l 1,10,-1
 177 0 l 1,11,-1
 113 0 l 1,12,-1
 213 475 l 1,13,-1
 127 475 l 1,14,-1
 137 518 l 1,15,-1
 223 518 l 1,16,-1
 232 563 l 1,17,18
 259 686 259 686 320 734 c 0,19,20
 376 778 376 778 477 779 c 0,21,22
 539 779 539 779 580 748 c 1,23,-1
 571 697 l 1,0,1
EndSplineSet
EndChar

StartChar: g
Encoding: 103 103 74
Width: 563
Flags: HW
LayerCount: 2
Fore
SplineSet
625 518 m 1,0,-1
 513 -6 l 1,1,2
 501 -52 501 -52 489 -76.5 c 128,-1,3
 477 -101 477 -101 457.5 -127 c 128,-1,4
 438 -153 438 -153 408 -174 c 0,5,6
 337 -223 337 -223 232 -223 c 0,7,8
 112 -223 112 -223 51 -132 c 1,9,-1
 98 -100 l 1,10,11
 129 -143 129 -143 181 -167 c 0,12,13
 207 -179 207 -179 256 -179 c 128,-1,14
 305 -179 305 -179 344.5 -156.5 c 128,-1,15
 384 -134 384 -134 406 -105 c 0,16,17
 437 -64 437 -64 447 -6 c 1,18,-1
 461 59 l 1,19,20
 421 17 421 17 392 3 c 0,21,22
 344 -19 344 -19 281 -19 c 128,-1,23
 218 -19 218 -19 177 4.5 c 128,-1,24
 136 28 136 28 116 67 c 0,25,26
 94 110 94 110 94 170 c 0,27,28
 94 212 94 212 105 263 c 0,29,30
 134 398 134 398 198 462 c 0,31,32
 268 532 268 532 394 533 c 0,33,34
 468 532 468 532 504 510 c 0,35,36
 537 490 537 490 558 442 c 1,37,-1
 580 518 l 1,38,-1
 625 518 l 1,0,-1
217 393.5 m 128,-1,40
 190 348 190 348 172 265 c 0,41,42
 160 206 160 206 160 165 c 0,43,44
 160 149 160 149 162 135 c 0,45,46
 170 88 170 88 190 64 c 0,47,48
 222 27 222 27 296 27 c 1,49,50
 318 27 318 27 346.5 32 c 0,51,52
 375 38 375 38 404 60 c 0,53,54
 474 114 474 114 505 263 c 1,55,56
 518 322 518 322 518 365 c 0,57,58
 518 428 518 428 490 457 c 0,59,60
 470 478 470 478 443 482 c 128,-1,61
 416 486 416 486 390.5 486 c 128,-1,62
 365 486 365 486 334.5 483 c 128,-1,63
 304 480 304 480 274 459.5 c 128,-1,39
 244 439 244 439 217 393.5 c 128,-1,40
EndSplineSet
EndChar

StartChar: h
Encoding: 104 104 75
Width: 569
Flags: HW
LayerCount: 2
Fore
SplineSet
510 320 m 2,0,1
 517 352 517 352 517 379 c 0,2,3
 518 416 518 416 504 440 c 0,4,5
 482 482 482 482 418 483 c 0,6,7
 350 483 350 483 289 437 c 0,8,9
 227 390 227 390 215 331 c 2,10,-1
 145 0 l 1,11,-1
 79 0 l 1,12,-1
 247 795 l 1,13,-1
 313 795 l 1,14,-1
 232 411 l 1,15,16
 262 459 262 459 330.5 496 c 128,-1,17
 399 533 399 533 459 533 c 0,18,19
 530 533 530 533 562 479 c 0,20,21
 581 446 581 446 582 394 c 0,22,23
 582 358 582 358 572 313 c 2,24,-1
 506 0 l 1,25,-1
 442 0 l 1,26,-1
 510 320 l 2,0,1
EndSplineSet
EndChar

StartChar: i
Encoding: 105 105 76
Width: 229
Flags: HW
LayerCount: 2
Fore
SplineSet
226 711 m 1,0,-1
 244 796 l 1,1,-1
 329 796 l 1,2,-1
 311 711 l 1,3,-1
 226 711 l 1,0,-1
202 518 m 1,4,-1
 270 518 l 1,5,-1
 160 0 l 1,6,-1
 92 0 l 1,7,-1
 202 518 l 1,4,-1
EndSplineSet
EndChar

StartChar: j
Encoding: 106 106 77
Width: 231
Flags: HW
LayerCount: 2
Fore
SplineSet
157 -16 m 1,0,1
 136 -120 136 -120 74 -172 c 0,2,3
 35 -205 35 -205 -15 -214 c 1,4,5
 -11 -200 -11 -200 -9 -189.5 c 128,-1,6
 -7 -179 -7 -179 -4 -169 c 1,7,8
 68 -113 68 -113 87 -26 c 2,9,-1
 203 518 l 1,10,-1
 271 518 l 1,11,-1
 157 -16 l 1,0,1
312 711 m 1,12,-1
 228 711 l 1,13,-1
 246 796 l 1,14,-1
 330 796 l 1,15,-1
 312 711 l 1,12,-1
EndSplineSet
EndChar

StartChar: k
Encoding: 107 107 78
Width: 538
Flags: HW
LayerCount: 2
Fore
SplineSet
241 411 m 1,0,1
 361 550 361 550 490 550 c 0,2,3
 553 550 553 550 583 509 c 0,4,5
 603 482 603 482 603 445 c 0,6,7
 603 429 603 429 599 412 c 0,8,9
 577 304 577 304 399 200 c 1,10,-1
 509 0 l 1,11,-1
 430 0 l 1,12,-1
 336 170 l 1,13,-1
 269 143 l 1,14,-1
 280 196 l 1,15,16
 429 253 429 253 501 333 c 0,17,18
 530 364 530 364 538 404 c 0,19,20
 540 415 540 415 540 426 c 0,21,22
 540 452 540 452 524 472 c 0,23,24
 502 500 502 500 465.5 499.5 c 128,-1,25
 429 499 429 499 390.5 482 c 0,26,27
 352 464 352 464 316 436 c 0,28,29
 233 370 233 370 217 297 c 1,30,-1
 154 0 l 1,31,-1
 86 0 l 1,32,-1
 254 794 l 1,33,-1
 322 794 l 1,34,-1
 241 411 l 1,0,1
EndSplineSet
EndChar

StartChar: l
Encoding: 108 108 79
Width: 229
Flags: HW
LayerCount: 2
Fore
SplineSet
92 0 m 1,0,-1
 260 794 l 1,1,-1
 326 794 l 1,2,-1
 158 0 l 1,3,-1
 92 0 l 1,0,-1
EndSplineSet
EndChar

StartChar: m
Encoding: 109 109 80
Width: 789
Flags: HW
LayerCount: 2
Fore
SplineSet
754 330 m 2,0,1
 765 386 765 386 765 416 c 0,2,3
 765 429 765 429 763 436 c 0,4,5
 756 462 756 462 739.5 473 c 128,-1,6
 723 484 723 484 689 484 c 128,-1,7
 655 484 655 484 624.5 469.5 c 128,-1,8
 594 455 594 455 571 432 c 0,9,10
 527 388 527 388 513 320 c 2,11,-1
 445 0 l 1,12,-1
 377 0 l 1,13,-1
 445 320 l 2,14,15
 455 370 455 370 455 405 c 0,16,17
 456 426 456 426 452 442 c 0,18,19
 442 484 442 484 388 484 c 0,20,21
 319 484 319 484 264 422 c 0,22,23
 219 371 219 371 204 303 c 2,24,-1
 140 0 l 1,25,-1
 74 0 l 1,26,-1
 183 517 l 1,27,-1
 242 517 l 1,28,-1
 225 407 l 1,29,30
 258 468 258 468 310.5 500.5 c 128,-1,31
 363 533 363 533 429 533 c 0,32,33
 472 533 472 533 495 503.5 c 128,-1,34
 518 474 518 474 522 407 c 1,35,36
 577 492 577 492 666 522 c 0,37,38
 698 532 698 532 735 533 c 0,39,40
 798 534 798 534 818 484 c 0,41,42
 827 462 827 462 826 427 c 0,43,44
 826 384 826 384 813 323 c 1,45,-1
 748 0 l 1,46,-1
 684 0 l 1,47,-1
 754 330 l 2,0,1
EndSplineSet
EndChar

StartChar: n
Encoding: 110 110 81
Width: 562
Flags: HW
LayerCount: 2
Fore
SplineSet
513 320 m 2,0,1
 520 352 520 352 520 379 c 0,2,3
 520 416 520 416 506 440 c 0,4,5
 484 482 484 482 421 483 c 0,6,7
 353 483 353 483 292 437 c 0,8,9
 230 390 230 390 218 331 c 2,10,-1
 148 0 l 1,11,-1
 82 0 l 1,12,-1
 192 518 l 1,13,-1
 251 518 l 1,14,-1
 235 415 l 1,15,16
 263 460 263 460 333 498 c 0,17,18
 400 534 400 534 466.5 533.5 c 128,-1,19
 533 533 533 533 566 479 c 0,20,21
 585 448 585 448 585 397 c 0,22,23
 585 360 585 360 575 313 c 2,24,-1
 509 0 l 1,25,-1
 445 0 l 1,26,-1
 513 320 l 2,0,1
EndSplineSet
EndChar

StartChar: o
Encoding: 111 111 82
Width: 563
Flags: HW
LayerCount: 2
Fore
SplineSet
217 393 m 0,0,1
 192 347 192 347 174 263 c 0,2,3
 162 203 162 203 161 162 c 0,4,5
 161 146 161 146 163 132 c 0,6,7
 170 86 170 86 191 63 c 128,-1,8
 212 40 212 40 242 34.5 c 128,-1,9
 272 29 272 29 297 29 c 128,-1,10
 322 29 322 29 350 33 c 0,11,12
 378 36 378 36 408 58 c 0,13,14
 476 108 476 108 509 261 c 0,15,16
 521 318 521 318 521 361 c 0,17,18
 520 428 520 428 490 458 c 0,19,20
 468 479 468 479 439.5 483 c 128,-1,21
 411 487 411 487 385.5 487 c 128,-1,22
 360 487 360 487 330.5 484 c 128,-1,23
 301 481 301 481 272 460 c 128,-1,24
 243 439 243 439 217 393 c 0,0,1
400 533 m 0,25,26
 468 533 468 533 511 511.5 c 128,-1,27
 554 490 554 490 574 453 c 0,28,29
 595 414 595 414 595 356 c 0,30,31
 595 314 595 314 584 261 c 1,32,33
 555 120 555 120 491 54 c 0,34,35
 422 -17 422 -17 290 -17 c 257,36,37
 160 -18 160 -18 116 66 c 0,38,39
 93 109 93 109 93 171 c 0,40,41
 93 212 93 212 104 261 c 0,42,43
 134 398 134 398 198 462 c 0,44,45
 270 532 270 532 400 533 c 0,25,26
EndSplineSet
EndChar

StartChar: p
Encoding: 112 112 83
Width: 544
Flags: HW
LayerCount: 2
Fore
SplineSet
486 469 m 0,0,1
 468 490 468 490 426.5 490 c 128,-1,2
 385 490 385 490 346 470 c 0,3,4
 308 450 308 450 278 420 c 0,5,6
 220 361 220 361 205 294 c 2,7,-1
 158 71 l 1,8,9
 187 54 187 54 211 47.5 c 128,-1,10
 235 41 235 41 282 41 c 128,-1,11
 329 41 329 41 367.5 60.5 c 128,-1,12
 406 80 406 80 431 111 c 0,13,14
 484 178 484 178 506 340 c 0,15,16
 509 365 509 365 510 386 c 0,17,18
 509 441 509 441 486 469 c 0,0,1
256 -8 m 0,19,20
 213 -8 213 -8 144 11 c 1,21,-1
 96 -213 l 1,22,-1
 32 -213 l 1,23,-1
 187 517 l 1,24,-1
 239 517 l 1,25,-1
 226 397 l 1,26,27
 232 411 232 411 252 434 c 0,28,29
 272 458 272 458 300 480 c 0,30,31
 369 534 369 534 441 534 c 0,32,33
 572 534 572 534 572 388 c 0,34,35
 572 381 572 381 572 374 c 0,36,37
 570 323 570 323 557 260 c 0,38,39
 527 119 527 119 456 55.5 c 128,-1,40
 385 -8 385 -8 256 -8 c 0,19,20
EndSplineSet
EndChar

StartChar: q
Encoding: 113 113 84
Width: 540
Flags: HW
LayerCount: 2
Fore
SplineSet
507 450 m 1,0,1
 443 489 443 489 384 489 c 128,-1,2
 325 489 325 489 290 468 c 128,-1,3
 255 447 255 447 231 414 c 0,4,5
 180 343 180 343 158 181 c 0,6,7
 155 156 155 156 154 135 c 0,8,9
 154 80 154 80 178 52 c 0,10,11
 196 31 196 31 237.5 31 c 128,-1,12
 279 31 279 31 318 51 c 0,13,14
 356 71 356 71 386 101 c 0,15,16
 445 161 445 161 460 227 c 2,17,-1
 507 450 l 1,0,1
367 -211 m 1,18,-1
 435 109 l 1,19,20
 386 55 386 55 354 33 c 0,21,22
 287 -12 287 -12 231.5 -12 c 128,-1,23
 176 -12 176 -12 147 7 c 128,-1,24
 118 26 118 26 104 62 c 0,25,26
 93 91 93 91 93 136 c 0,27,28
 93 189 93 189 109 264 c 0,29,30
 138 402 138 402 209 465.5 c 128,-1,31
 280 529 280 529 408 529 c 0,32,33
 499 529 499 529 580 485 c 1,34,-1
 432 -211 l 1,35,-1
 367 -211 l 1,18,-1
EndSplineSet
EndChar

StartChar: r
Encoding: 114 114 85
Width: 367
Flags: HW
LayerCount: 2
Fore
SplineSet
466 464 m 1,0,1
 408 479 408 479 393 480 c 1,2,3
 369 480 369 480 340 468 c 0,4,5
 310 456 310 456 284 429 c 0,6,7
 224 368 224 368 199 248 c 2,8,-1
 147 0 l 1,9,-1
 78 0 l 1,10,-1
 187 517 l 1,11,-1
 242 517 l 1,12,-1
 232 403 l 1,13,14
 270 466 270 466 296 489 c 0,15,16
 346 532 346 532 405 532 c 256,17,18
 453 532 453 532 482 519 c 1,19,-1
 466 464 l 1,0,1
EndSplineSet
EndChar

StartChar: s
Encoding: 115 115 86
Width: 472
Flags: HW
LayerCount: 2
Fore
SplineSet
253 514 m 0,0,1
 291 528 291 528 336 528 c 128,-1,2
 381 528 381 528 409 523 c 128,-1,3
 437 518 437 518 459 510 c 0,4,5
 482 502 482 502 529 481 c 1,6,7
 526 470 526 470 524 456.5 c 128,-1,8
 522 443 522 443 520 433 c 1,9,10
 475 454 475 454 432 470 c 128,-1,11
 389 486 389 486 353.5 486 c 128,-1,12
 318 486 318 486 298 483 c 128,-1,13
 278 480 278 480 260 470 c 0,14,15
 221 449 221 449 211 397 c 0,16,17
 208 384 208 384 208 373 c 0,18,19
 208 346 208 346 226 332 c 0,20,21
 245 317 245 317 307 299 c 1,22,23
 408 273 408 273 452 236 c 0,24,25
 486 207 486 207 486 165 c 0,26,27
 486 152 486 152 483 138 c 0,28,29
 467 66 467 66 402 26 c 0,30,31
 338 -14 338 -14 245 -15 c 0,32,33
 148 -15 148 -15 77 27 c 0,34,35
 60 37 60 37 53 43 c 1,36,37
 56 60 56 60 60 75.5 c 128,-1,38
 64 91 64 91 67 108 c 1,39,40
 108 81 108 81 154 58 c 128,-1,41
 200 35 200 35 256 35 c 0,42,43
 352 35 352 35 391 87 c 0,44,45
 406 107 406 107 412 135 c 0,46,47
 414 145 414 145 414 154 c 0,48,49
 414 170 414 170 407 181 c 0,50,51
 396 198 396 198 374 212 c 0,52,53
 346 229 346 229 252 256 c 1,54,55
 176 280 176 280 152 314 c 0,56,57
 137 335 137 335 137 366 c 0,58,59
 137 381 137 381 140 399 c 1,60,61
 158 480 158 480 253 514 c 0,0,1
EndSplineSet
EndChar

StartChar: t
Encoding: 116 116 87
Width: 344
Flags: HW
LayerCount: 2
Fore
SplineSet
236 518 m 1,0,1
 268 615 268 615 288 671 c 1,2,-1
 333 671 l 1,3,-1
 301 518 l 1,4,-1
 435 518 l 1,5,-1
 425 475 l 1,6,-1
 291 475 l 1,7,-1
 220 139 l 2,8,9
 210 90 210 90 210 69 c 0,10,11
 210 61 210 61 211 57 c 0,12,13
 217 44 217 44 227.5 40.5 c 128,-1,14
 238 37 238 37 258 37 c 0,15,16
 297 37 297 37 334 53 c 1,17,-1
 323 3 l 1,18,19
 254 -12 254 -12 226 -12 c 128,-1,20
 198 -12 198 -12 181 -7.5 c 128,-1,21
 164 -3 164 -3 154 10 c 0,22,23
 143 25 143 25 143 53 c 0,24,25
 143 74 143 74 149 104 c 2,26,-1
 227 475 l 1,27,-1
 125 475 l 1,28,-1
 135 518 l 1,29,-1
 236 518 l 1,0,1
EndSplineSet
EndChar

StartChar: u
Encoding: 117 117 88
Width: 574
Flags: HW
LayerCount: 2
Fore
SplineSet
185 188 m 2,0,1
 176 147 176 147 176 116 c 0,2,3
 176 90 176 90 183 70 c 0,4,5
 197 28 197 28 263 28 c 0,6,7
 336 28 336 28 400 75 c 0,8,9
 470 126 470 126 488 204 c 2,10,-1
 555 518 l 1,11,-1
 620 518 l 1,12,-1
 510 0 l 1,13,-1
 450 0 l 1,14,-1
 467 108 l 1,15,16
 432 48 432 48 372 15.5 c 128,-1,17
 312 -17 312 -17 238 -17 c 0,18,19
 110 -17 110 -17 110 117 c 0,20,21
 110 152 110 152 119 197 c 1,22,-1
 188 518 l 1,23,-1
 256 518 l 1,24,-1
 185 188 l 2,0,1
EndSplineSet
EndChar

StartChar: v
Encoding: 118 118 89
Width: 548
Flags: HW
LayerCount: 2
Fore
SplineSet
212 518 m 1,0,-1
 293 59 l 1,1,2
 306 78 l 2,3,4
 318 98 318 98 339 130.5 c 128,-1,5
 360 163 360 163 386 204 c 128,-1,6
 412 245 412 245 439 288 c 128,-1,7
 466 331 466 331 492 372 c 128,-1,8
 518 413 518 413 538.5 445.5 c 128,-1,9
 559 478 559 478 571 498 c 2,10,-1
 583 518 l 1,11,-1
 650 518 l 1,12,-1
 314 0 l 1,13,-1
 251 0 l 1,14,-1
 143 518 l 1,15,-1
 212 518 l 1,0,-1
EndSplineSet
EndChar

StartChar: w
Encoding: 119 119 90
Width: 787
Flags: HW
LayerCount: 2
Fore
SplineSet
200 518 m 1,0,-1
 226 50 l 1,1,2
 238 70 l 2,3,4
 250 90 250 90 269.5 123 c 128,-1,5
 289 156 289 156 314 198 c 128,-1,6
 339 240 339 240 364.5 283.5 c 128,-1,7
 390 327 390 327 415 369.5 c 128,-1,8
 440 412 440 412 459.5 444.5 c 0,9,10
 479 478 479 478 491 498 c 2,11,-1
 503 518 l 1,12,-1
 557 518 l 1,13,-1
 620 49 l 1,14,-1
 830 518 l 1,15,-1
 894 518 l 1,16,-1
 654 0 l 1,17,-1
 572 0 l 1,18,-1
 521 477 l 1,19,-1
 250 0 l 1,20,-1
 173 0 l 1,21,-1
 137 518 l 1,22,-1
 200 518 l 1,0,-1
EndSplineSet
EndChar

StartChar: x
Encoding: 120 120 91
Width: 511
Flags: HW
LayerCount: 2
Fore
SplineSet
96 1 m 1,0,-1
 25 1 l 1,1,-1
 283 271 l 1,2,-1
 156 518 l 1,3,-1
 234 518 l 1,4,-1
 329 320 l 1,5,-1
 512 518 l 1,6,-1
 589 518 l 1,7,-1
 357 271 l 1,8,-1
 498 1 l 1,9,-1
 430 1 l 1,10,-1
 309 223 l 1,11,-1
 96 1 l 1,0,-1
EndSplineSet
EndChar

StartChar: y
Encoding: 121 121 92
Width: 535
Flags: HW
LayerCount: 2
Fore
SplineSet
140 518 m 1,0,-1
 208 518 l 1,1,-1
 291 0 l 1,2,-1
 569 518 l 1,3,-1
 637 518 l 1,4,-1
 220 -212 l 1,5,-1
 162 -212 l 1,6,-1
 245 -52 l 1,7,-1
 140 518 l 1,0,-1
EndSplineSet
EndChar

StartChar: z
Encoding: 122 122 93
Width: 458
Flags: HW
LayerCount: 2
Fore
SplineSet
450 53 m 1,0,-1
 439 0 l 1,1,-1
 37 0 l 1,2,-1
 48 53 l 1,3,-1
 470 474 l 1,4,-1
 137 474 l 1,5,-1
 147 518 l 1,6,-1
 557 518 l 1,7,-1
 547 474 l 1,8,-1
 120 53 l 1,9,-1
 450 53 l 1,0,-1
EndSplineSet
EndChar

StartChar: braceleft
Encoding: 123 123 94
Width: 447
Flags: HW
LayerCount: 2
Fore
SplineSet
384 -213 m 1,0,-1
 316 -213 l 2,1,2
 228 -214 228 -214 182 -168 c 0,3,4
 145 -131 145 -131 145 -66 c 0,5,6
 145 -37 145 -37 152 -3 c 2,7,-1
 184 150 l 1,8,9
 187 162 187 162 187 173 c 0,10,11
 186 202 186 202 166 221 c 0,12,13
 154 232 154 232 140.5 238 c 128,-1,14
 127 244 127 244 118 248 c 1,15,-1
 128 294 l 1,16,17
 163 307 163 307 194 330.5 c 128,-1,18
 225 354 225 354 237 396 c 1,19,-1
 270 551 l 1,20,21
 290 653 290 653 368 707 c 0,22,23
 434 753 434 753 522 753 c 2,24,-1
 590 753 l 1,25,-1
 580 706 l 1,26,-1
 522 706 l 2,27,28
 469 706 469 706 437 694 c 128,-1,29
 405 682 405 682 381 660 c 128,-1,30
 357 638 357 638 348 597 c 2,31,-1
 306 397 l 1,32,33
 290 334 290 334 252 304 c 0,34,35
 238 292 238 292 220 290 c 1,36,-1
 212 252 l 1,37,38
 246 244 246 244 254 214 c 0,39,40
 258 199 258 199 257 184 c 0,41,42
 257 167 257 167 253 150 c 2,43,-1
 209 -60 l 2,44,45
 206 -74 206 -74 206 -86 c 0,46,47
 206 -134 206 -134 253 -155 c 0,48,49
 281 -167 281 -167 336 -167 c 2,50,-1
 394 -167 l 1,51,-1
 384 -213 l 1,0,-1
EndSplineSet
EndChar

StartChar: bar
Encoding: 124 124 95
Width: 229
Flags: HW
LayerCount: 2
Fore
SplineSet
271 809 m 1,0,-1
 318 809 l 1,1,-1
 97 -234 l 1,2,-1
 50 -234 l 1,3,-1
 271 809 l 1,0,-1
EndSplineSet
EndChar

StartChar: braceright
Encoding: 125 125 96
Width: 444
Flags: HW
LayerCount: 2
Fore
SplineSet
-8 -213 m 1,0,-1
 1 -167 l 1,1,-1
 59 -167 l 2,2,3
 115 -167 115 -167 146 -156 c 128,-1,4
 177 -145 177 -145 200.5 -123.5 c 128,-1,5
 224 -102 224 -102 233 -60 c 2,6,-1
 277 150 l 1,7,8
 297 239 297 239 362 251 c 1,9,-1
 370 289 l 1,10,11
 325 297 325 297 325 358 c 0,12,13
 326 362 326 362 326 364 c 0,14,15
 326 382 326 382 330 397 c 2,16,-1
 372 597 l 2,17,18
 375 611 375 611 375 624 c 0,19,20
 375 672 375 672 329 692 c 0,21,22
 299 706 299 706 245 706 c 2,23,-1
 187 706 l 1,24,-1
 197 753 l 1,25,-1
 265 753 l 2,26,27
 355 753 355 753 401 707 c 0,28,29
 438 670 438 670 438 606 c 0,30,31
 438 580 438 580 432 551 c 1,32,-1
 399 397 l 2,33,34
 396 385 396 385 396 373 c 0,35,36
 396 344 396 344 415 324 c 0,37,38
 432 306 432 306 464 294 c 1,39,-1
 454 247 l 1,40,41
 394 225 394 225 362 183 c 0,42,43
 350 168 350 168 346 150 c 1,44,-1
 314 -3 l 2,45,46
 290 -114 290 -114 215 -168 c 0,47,48
 152 -214 152 -214 59 -213 c 2,49,-1
 -8 -213 l 1,0,-1
EndSplineSet
EndChar

StartChar: asciitilde
Encoding: 126 126 97
Width: 600
Flags: HW
LayerCount: 2
Fore
SplineSet
518 217 m 1,0,1
 450 189 450 189 416 189 c 128,-1,2
 382 189 382 189 358 193 c 0,3,4
 334 196 334 196 312 202 c 0,5,6
 259 216 259 216 215 216 c 128,-1,7
 171 216 171 216 108 197 c 1,8,-1
 106 237 l 1,9,10
 134 250 134 250 158 259 c 128,-1,11
 182 268 182 268 213.5 268 c 128,-1,12
 245 268 245 268 267.5 263.5 c 128,-1,13
 290 259 290 259 311 254 c 0,14,15
 370 240 370 240 419.5 240 c 128,-1,16
 469 240 469 240 518 262 c 1,17,-1
 518 217 l 1,0,1
EndSplineSet
EndChar

StartChar: exclamdown
Encoding: 161 161 98
Width: 264
Flags: HW
LayerCount: 2
Fore
SplineSet
271 431 m 1,0,-1
 187 431 l 1,1,-1
 205 515 l 1,2,-1
 289 515 l 1,3,-1
 271 431 l 1,0,-1
192 290 m 1,4,-1
 213 290 l 1,5,-1
 176 -4 l 1,6,-1
 130 -217 l 1,7,-1
 59 -217 l 1,8,-1
 105 -4 l 1,9,-1
 192 290 l 1,4,-1
EndSplineSet
EndChar

StartChar: cent
Encoding: 162 162 99
Width: 509
Flags: HW
LayerCount: 2
Fore
SplineSet
592 492 m 1,0,1
 583 465 583 465 574 445 c 1,2,3
 544 459 544 459 510.5 472 c 128,-1,4
 477 485 477 485 425 490 c 1,5,-1
 326 28 l 1,6,7
 429 38 429 38 512 73 c 1,8,9
 502 25 502 25 500 14 c 1,10,11
 421 -7 421 -7 385 -11 c 128,-1,12
 349 -15 349 -15 317 -16 c 1,13,-1
 294 -124 l 1,14,-1
 261 -124 l 1,15,-1
 285 -14 l 1,16,17
 171 -14 171 -14 125 62 c 0,18,19
 98 107 98 107 98 172 c 0,20,21
 98 214 98 214 109 264 c 0,22,23
 136 394 136 394 214 461.5 c 128,-1,24
 292 529 292 529 400 529 c 1,25,-1
 416 604 l 1,26,-1
 449 604 l 1,27,-1
 433 529 l 1,28,29
 524 521 524 521 592 492 c 1,0,1
176 264 m 1,30,31
 166 220 166 220 166 182 c 0,32,33
 166 130 166 130 186 91 c 0,34,35
 218 27 218 27 293 27 c 1,36,-1
 392 490 l 1,37,38
 328 490 328 490 265 429 c 0,39,40
 197 364 197 364 176 265 c 1,41,-1
 176 264 l 1,30,31
EndSplineSet
EndChar

StartChar: sterling
Encoding: 163 163 100
Width: 585
Flags: HW
LayerCount: 2
Fore
SplineSet
607 680 m 1,0,1
 559 705 559 705 514 705 c 128,-1,2
 469 705 469 705 442.5 692.5 c 128,-1,3
 416 680 416 680 398 659 c 0,4,5
 370 626 370 626 356 556 c 2,6,-1
 324 405 l 1,7,-1
 437 405 l 1,8,-1
 427 360 l 1,9,-1
 314 360 l 1,10,-1
 281 205 l 2,11,12
 259 108 259 108 203 67 c 0,13,14
 185 54 185 54 166 44 c 1,15,-1
 342 42 l 1,16,17
 535 42 535 42 581 198 c 1,18,19
 586 224 586 224 586 247 c 0,20,21
 586 300 586 300 557 334 c 1,22,-1
 589 362 l 1,23,24
 622 323 622 323 624 280 c 0,25,26
 624 271 624 271 624 263 c 0,27,28
 624 228 624 228 616 190 c 0,29,30
 606 144 606 144 578.5 106 c 0,31,32
 552 68 552 68 514 44 c 0,33,34
 447 0 447 0 357 0 c 0,35,36
 349 0 349 0 340 0 c 1,37,-1
 49 0 l 1,38,-1
 58 43 l 1,39,40
 121 52 121 52 155 96 c 128,-1,41
 189 140 189 140 203 205 c 2,42,-1
 236 360 l 1,43,-1
 187 360 l 1,44,-1
 197 405 l 1,45,-1
 246 405 l 1,46,-1
 283 579 l 1,47,48
 300 662 300 662 370 709 c 0,49,50
 430 749 430 749 510 749 c 0,51,52
 578 749 578 749 616 723 c 1,53,-1
 607 680 l 1,0,1
EndSplineSet
EndChar

StartChar: yen
Encoding: 165 165 101
Width: 690
Flags: HW
LayerCount: 2
Fore
SplineSet
421 328 m 1,0,1
 653 603 653 603 763 731 c 1,2,-1
 847 731 l 1,3,-1
 496 325 l 1,4,-1
 670 325 l 1,5,-1
 661 284 l 1,6,-1
 455 284 l 1,7,-1
 419 115 l 1,8,-1
 625 115 l 1,9,-1
 616 75 l 1,10,-1
 410 75 l 1,11,-1
 395 0 l 1,12,-1
 321 0 l 1,13,-1
 336 75 l 1,14,-1
 133 75 l 1,15,-1
 142 115 l 1,16,-1
 345 115 l 1,17,-1
 381 284 l 1,18,-1
 178 284 l 1,19,-1
 187 325 l 1,20,-1
 358 325 l 1,21,-1
 179 731 l 1,22,-1
 262 731 l 1,23,-1
 421 328 l 1,0,1
EndSplineSet
EndChar

StartChar: section
Encoding: 167 167 102
Width: 556
Flags: HW
LayerCount: 2
Fore
SplineSet
58 -89 m 1,0,1
 155 -163 155 -163 246 -163 c 0,2,3
 312 -163 312 -163 340.5 -148 c 128,-1,4
 369 -133 369 -133 384 -113.5 c 0,5,6
 398 -94 398 -94 404 -66 c 0,7,8
 406 -56 406 -56 406 -47 c 0,9,10
 406 -30 406 -30 400 -14 c 0,11,12
 390 10 390 10 368 29 c 0,13,14
 319 71 319 71 245 71 c 1,15,16
 162 72 162 72 126 128 c 0,17,18
 106 161 106 161 105 207 c 0,19,20
 105 234 105 234 112 267 c 0,21,22
 134 364 134 364 222 426 c 0,23,24
 256 450 256 450 306 466 c 1,25,26
 266 494 266 494 253 528 c 0,27,28
 246 545 246 545 246 569 c 0,29,30
 246 591 246 591 252 619 c 0,31,32
 270 700 270 700 364 732 c 0,33,34
 402 744 402 744 448 744.5 c 128,-1,35
 494 745 494 745 524 740 c 0,36,37
 554 736 554 736 577 728 c 0,38,39
 608 718 608 718 641 699 c 1,40,-1
 631 650 l 1,41,42
 577 679 577 679 527 690.5 c 128,-1,43
 477 702 477 702 453 702 c 128,-1,44
 429 702 429 702 408 699 c 128,-1,45
 387 696 387 696 370 687 c 0,46,47
 331 666 331 666 320 614 c 0,48,49
 317 599 317 599 317 585 c 0,50,51
 317 490 317 490 459 459 c 0,52,53
 532 442 532 442 560 404 c 0,54,55
 583 373 583 373 582 324 c 0,56,57
 582 298 582 298 576 267 c 0,58,59
 564 208 564 208 520 160 c 0,60,61
 466 99 466 99 382 84 c 1,62,63
 433 63 433 63 450 40 c 0,64,65
 475 5 475 5 475 -33 c 0,66,67
 475 -47 475 -47 472 -62 c 0,68,69
 448 -171 448 -171 320 -203 c 0,70,71
 280 -213 280 -213 239 -213 c 128,-1,72
 198 -213 198 -213 167.5 -206.5 c 128,-1,73
 137 -200 137 -200 113 -191 c 128,-1,74
 89 -182 89 -182 71.5 -172 c 128,-1,75
 54 -162 54 -162 43 -156 c 1,76,-1
 58 -89 l 1,0,1
324 419 m 1,77,78
 280 418 280 418 238 378 c 0,79,80
 194 337 194 337 184 288 c 128,-1,81
 174 239 174 239 172 206 c 0,82,83
 172 202 172 202 172 199 c 0,84,85
 172 170 172 170 186 152 c 0,86,87
 202 132 202 132 237.5 123.5 c 128,-1,88
 273 115 273 115 319 115 c 128,-1,89
 365 115 365 115 391.5 125.5 c 128,-1,90
 418 136 418 136 441 156 c 0,91,92
 493 201 493 201 505 260 c 0,93,94
 513 297 513 297 513 323 c 0,95,96
 513 338 513 338 510 349 c 0,97,98
 503 379 503 379 479 394 c 128,-1,99
 455 409 455 409 416 413 c 128,-1,100
 377 417 377 417 324 419 c 1,77,78
EndSplineSet
EndChar

StartChar: dieresis
Encoding: 168 168 103
Width: 222
Flags: HW
LayerCount: 2
Fore
SplineSet
404 707 m 1,0,-1
 320 707 l 1,1,-1
 299 609 l 1,2,-1
 383 609 l 1,3,-1
 404 707 l 1,0,-1
206 707 m 1,4,-1
 185 609 l 1,5,-1
 102 609 l 1,6,-1
 123 707 l 1,7,-1
 206 707 l 1,4,-1
404 707 m 1,8,-1
 383 609 l 1,9,-1
 299 609 l 1,10,-1
 320 707 l 1,11,-1
 404 707 l 1,8,-1
206 707 m 1,12,-1
 123 707 l 1,13,-1
 102 609 l 1,14,-1
 185 609 l 1,15,-1
 206 707 l 1,12,-1
EndSplineSet
EndChar

StartChar: ordfeminine
Encoding: 170 170 104
Width: 277
Flags: HW
LayerCount: 2
Fore
SplineSet
315 573 m 1,0,1
 295 565 295 565 265 565 c 128,-1,2
 235 565 235 565 224.5 564.5 c 128,-1,3
 214 564 214 564 204 558 c 0,4,5
 182 545 182 545 176 513 c 0,6,7
 174 503 174 503 174 494 c 0,8,9
 174 476 174 476 184 466 c 0,10,11
 198 452 198 452 226.5 452.5 c 128,-1,12
 255 453 255 453 296 484 c 1,13,-1
 315 573 l 1,0,1
196 691 m 1,14,15
 240 705 240 705 273 705 c 128,-1,16
 306 705 306 705 321.5 701.5 c 128,-1,17
 337 698 337 698 347 686 c 0,18,19
 360 671 360 671 360 643 c 0,20,21
 360 625 360 625 355 602 c 2,22,-1
 320 434 l 1,23,-1
 295 434 l 1,24,-1
 288 457 l 1,25,26
 260 431 260 431 213 431 c 0,27,28
 166 432 166 432 150 452 c 0,29,30
 139 466 139 466 139 487 c 0,31,32
 139 498 139 498 142 510 c 0,33,34
 149 544 149 544 166 559 c 0,35,36
 198 587 198 587 236 587 c 128,-1,37
 274 587 274 587 290.5 588 c 128,-1,38
 307 589 307 589 321 600 c 1,39,40
 328 634 328 634 328 651 c 0,41,42
 328 662 328 662 325 666 c 0,43,44
 318 676 318 676 307 678 c 128,-1,45
 296 680 296 680 265.5 680 c 128,-1,46
 235 680 235 680 201 666 c 1,47,-1
 196 691 l 1,14,15
EndSplineSet
EndChar

StartChar: guillemotleft
Encoding: 171 171 105
Width: 562
Flags: HW
LayerCount: 2
Fore
SplineSet
141 302 m 2,0,-1
 336 423 l 1,1,2
 333 409 333 409 329.5 396 c 128,-1,3
 326 383 326 383 315 378 c 1,4,-1
 159 282 l 1,5,6
 167 275 167 275 184 260.5 c 0,7,8
 200 246 200 246 218 231 c 0,9,10
 259 196 259 196 271 189 c 1,11,12
 282 180 282 180 280.5 166 c 128,-1,13
 279 152 279 152 276 140 c 1,14,-1
 133 262 l 1,15,16
 124 269 124 269 124 278 c 0,17,18
 124 292 124 292 141 302 c 2,0,-1
391 302 m 2,19,-1
 586 423 l 1,20,21
 583 409 583 409 579.5 396 c 128,-1,22
 576 383 576 383 565 378 c 1,23,-1
 409 282 l 1,24,25
 417 275 417 275 434 260.5 c 0,26,27
 450 246 450 246 468 231 c 0,28,29
 509 196 509 196 521 189 c 1,30,31
 532 180 532 180 530.5 166 c 128,-1,32
 529 152 529 152 526 140 c 1,33,-1
 383 262 l 1,34,35
 374 269 374 269 374 278 c 0,36,37
 374 292 374 292 391 302 c 2,19,-1
EndSplineSet
EndChar

StartChar: degree
Encoding: 176 176 106
Width: 400
Flags: HW
LayerCount: 2
Fore
SplineSet
117 640 m 0,0,1
 104 618 104 618 104 576 c 128,-1,2
 104 534 104 534 117.5 511.5 c 128,-1,3
 131 489 131 489 148 479 c 0,4,5
 168 467 168 467 203 467 c 0,6,7
 264 468 264 468 293 514 c 0,8,9
 307 536 307 536 307 577.5 c 128,-1,10
 307 619 307 619 293 641 c 0,11,12
 279 664 279 664 261 674 c 0,13,14
 238 688 238 688 203 687 c 256,15,16
 144 686 144 686 117 640 c 0,0,1
203 437 m 256,17,18
 64 437 64 437 64 577 c 0,19,20
 64 647 64 647 101 682.5 c 128,-1,21
 138 718 138 718 203 719 c 1,22,23
 278 718 278 718 311 682 c 128,-1,24
 344 646 344 646 344 577 c 0,25,26
 344 478 344 478 268 448 c 0,27,28
 241 438 241 438 203 437 c 256,17,18
EndSplineSet
EndChar

StartChar: twosuperior
Encoding: 178 178 107
Width: 348
Flags: HW
LayerCount: 2
Fore
SplineSet
203 681 m 1,0,1
 262 726 262 726 329 726 c 0,2,3
 394 726 394 726 422 694 c 0,4,5
 440 673 440 673 440 644 c 0,6,7
 440 633 440 633 438 621 c 0,8,9
 418 534 418 534 306 484 c 0,10,11
 236 452 236 452 206 425.5 c 128,-1,12
 176 399 176 399 160.5 372.5 c 128,-1,13
 145 346 145 346 138 311 c 1,14,-1
 386 311 l 1,15,-1
 383 300 l 1,16,-1
 102 300 l 1,17,18
 136 407 136 407 236 468 c 0,19,20
 268 487 268 487 310.5 506 c 128,-1,21
 353 525 353 525 380.5 555.5 c 128,-1,22
 408 586 408 586 414 612 c 0,23,24
 418 631 418 631 418 645 c 0,25,26
 418 650 418 650 417 654 c 0,27,28
 416 672 416 672 406 686 c 0,29,30
 385 716 385 716 325.5 715.5 c 128,-1,31
 266 715 266 715 219 671 c 1,32,33
 211 675 211 675 203 681 c 1,0,1
EndSplineSet
EndChar

StartChar: threesuperior
Encoding: 179 179 108
Width: 341
Flags: HW
LayerCount: 2
Fore
SplineSet
91 332 m 1,0,1
 158 312 158 312 224 312 c 256,2,3
 298 312 298 312 345 350 c 0,4,5
 381 379 381 379 389 418 c 1,6,7
 391 427 391 427 391 436 c 0,8,9
 391 462 391 462 371 485 c 0,10,11
 341 520 341 520 280 520 c 2,12,-1
 238 520 l 1,13,-1
 241 533 l 1,14,-1
 283 533 l 2,15,16
 391 533 391 533 411 626 c 1,17,18
 413 637 413 637 413 646 c 0,19,20
 414 690 414 690 372 706 c 0,21,22
 354 714 354 714 319 713 c 0,23,24
 272 713 272 713 178 676 c 1,25,-1
 181 690 l 1,26,27
 208 702 208 702 245 714.5 c 128,-1,28
 282 727 282 727 317.5 727 c 128,-1,29
 353 727 353 727 376 722 c 128,-1,30
 399 717 399 717 415 705 c 0,31,32
 442 685 442 685 442 651 c 0,33,34
 442 641 442 641 440 630 c 0,35,36
 429 581 429 581 399 558 c 128,-1,37
 369 535 369 535 335 526 c 1,38,39
 426 509 426 509 426 444 c 0,40,41
 426 432 426 432 423 418 c 1,42,43
 412 366 412 366 358 332 c 0,44,45
 300 295 300 295 232 295 c 0,46,47
 133 295 133 295 86 313 c 1,48,-1
 90 332 l 1,49,-1
 91 332 l 1,0,1
EndSplineSet
EndChar

StartChar: acute
Encoding: 180 180 109
Width: 222
Flags: HW
LayerCount: 2
Fore
SplineSet
389 742 m 1,0,-1
 264 614 l 1,1,-1
 203 614 l 1,2,-1
 287 742 l 1,3,-1
 389 742 l 1,0,-1
EndSplineSet
EndChar

StartChar: glyph110
Encoding: 183 183 110
Width: 290
Flags: HW
LayerCount: 2
Fore
SplineSet
189 391 m 1,0,-1
 274 391 l 1,1,-1
 256 306 l 1,2,-1
 171 306 l 1,3,-1
 189 391 l 1,0,-1
EndSplineSet
EndChar

StartChar: cedilla
Encoding: 184 184 111
Width: 245
Flags: HW
LayerCount: 2
Fore
SplineSet
89 -90 m 0,0,1
 76 -90 76 -90 51 -95 c 1,2,3
 59 -89 59 -89 85.5 -50.5 c 128,-1,4
 112 -12 112 -12 123 2 c 1,5,-1
 130 2 l 1,6,-1
 72 -78 l 1,7,8
 84 -77 84 -77 94 -77 c 0,9,10
 163 -78 163 -78 173 -124 c 0,11,12
 175 -131 175 -131 174.5 -137.5 c 128,-1,13
 174 -144 174 -144 173 -151 c 0,14,15
 160 -215 160 -215 77 -224 c 1,16,17
 37 -224 37 -224 15 -216 c 1,18,-1
 19 -196 l 1,19,20
 42 -206 42 -206 57 -206 c 128,-1,21
 72 -206 72 -206 82.5 -204.5 c 0,22,23
 93 -204 93 -204 104 -198 c 0,24,25
 130 -185 130 -185 137 -151 c 0,26,27
 139 -140 139 -140 139 -131 c 0,28,29
 139 -90 139 -90 89 -90 c 0,0,1
EndSplineSet
EndChar

StartChar: onesuperior
Encoding: 185 185 112
Width: 297
Flags: HW
LayerCount: 2
Fore
SplineSet
317 726 m 1,0,-1
 239 362 l 1,1,-1
 224 362 l 1,2,-1
 299 715 l 1,3,4
 294 714 294 714 287 713 c 128,-1,5
 280 712 280 712 272 710.5 c 128,-1,6
 264 709 264 709 255 708 c 1,7,-1
 270 715 l 2,8,9
 284 722 284 722 294 726 c 1,10,-1
 317 726 l 1,0,-1
EndSplineSet
EndChar

StartChar: ordmasculine
Encoding: 186 186 113
Width: 400
Flags: HW
LayerCount: 2
Fore
SplineSet
252 640 m 0,0,1
 234 618 234 618 226 576 c 0,2,3
 221 554 221 554 221 538 c 0,4,5
 222 522 222 522 226 512 c 0,6,7
 234 490 234 490 249 479 c 0,8,9
 267 467 267 467 302 467 c 0,10,11
 364 468 364 468 402 514 c 0,12,13
 420 536 420 536 429 578 c 0,14,15
 433 598 433 598 433 613 c 0,16,17
 432 629 432 629 428 641 c 0,18,19
 418 664 418 664 404 674 c 0,20,21
 384 688 384 688 349 687 c 256,22,23
 288 686 288 686 252 640 c 0,0,1
355 719 m 1,24,25
 430 718 430 718 456 682 c 0,26,27
 472 659 472 659 472 624 c 0,28,29
 472 603 472 603 466 577 c 1,30,31
 446 478 446 478 362 448 c 0,32,33
 332 438 332 438 295 437 c 256,34,35
 190 438 190 438 182 520 c 0,36,37
 181 527 181 527 181 533 c 0,38,39
 181 553 181 553 186 577 c 0,40,41
 201 647 201 647 245.5 682.5 c 128,-1,42
 290 718 290 718 355 719 c 1,24,25
EndSplineSet
EndChar

StartChar: guillemotright
Encoding: 187 187 114
Width: 555
Flags: HW
LayerCount: 2
Fore
SplineSet
564 302 m 2,0,1
 572 296 572 296 572 287 c 0,2,3
 572 285 572 285 572 282 c 0,4,5
 570 270 570 270 554 262 c 1,6,-1
 359 140 l 1,7,8
 362 152 362 152 366.5 166 c 128,-1,9
 371 180 371 180 381 186 c 2,10,-1
 411 204 l 2,11,12
 506 261 506 261 536 282 c 1,13,-1
 422 378 l 1,14,15
 413 383 413 383 414.5 396 c 128,-1,16
 416 409 416 409 419 423 c 1,17,-1
 564 302 l 2,0,1
314 302 m 2,18,19
 322 296 322 296 322 287 c 0,20,21
 322 285 322 285 322 282 c 0,22,23
 320 270 320 270 304 262 c 1,24,-1
 109 140 l 1,25,26
 112 152 112 152 116.5 166 c 128,-1,27
 121 180 121 180 131 186 c 2,28,-1
 161 204 l 2,29,30
 256 261 256 261 286 282 c 1,31,-1
 172 378 l 1,32,33
 163 383 163 383 164.5 396 c 128,-1,34
 166 409 166 409 169 423 c 1,35,-1
 314 302 l 2,18,19
EndSplineSet
EndChar

StartChar: questiondown
Encoding: 191 191 115
Width: 562
Flags: HW
LayerCount: 2
Fore
SplineSet
167 80 m 0,0,1
 192 98 192 98 219 116 c 128,-1,2
 246 134 246 134 270.5 151.5 c 0,3,4
 294 170 294 170 316 190 c 0,5,6
 365 236 365 236 383 293 c 1,7,-1
 421 293 l 1,8,9
 400 223 400 223 352 167 c 0,10,11
 323 133 323 133 265 94 c 1,12,13
 208 53 208 53 189 33 c 0,14,15
 150 -9 150 -9 139 -62 c 0,16,17
 136 -75 136 -75 137 -86 c 0,18,19
 136 -122 136 -122 162 -149 c 0,20,21
 196 -184 196 -184 290 -184 c 0,22,23
 378 -184 378 -184 492 -134 c 1,24,-1
 478 -202 l 1,25,26
 402 -226 402 -226 356.5 -230.5 c 128,-1,27
 311 -235 311 -235 268.5 -235 c 128,-1,28
 226 -235 226 -235 182.5 -225 c 128,-1,29
 139 -215 139 -215 110 -194 c 0,30,31
 62 -160 62 -160 62 -99 c 0,32,33
 62 -80 62 -80 67 -59 c 1,34,35
 85 21 85 21 167 80 c 0,0,1
469 433 m 1,36,-1
 385 433 l 1,37,-1
 402 517 l 1,38,-1
 486 517 l 1,39,-1
 469 433 l 1,36,-1
EndSplineSet
EndChar

StartChar: AE
Encoding: 198 198 122
Width: 1041
Flags: HW
LayerCount: 2
Fore
SplineSet
413 315 m 1,0,-1
 671 315 l 1,1,-1
 749 672 l 1,2,-1
 413 315 l 1,0,-1
738 714 m 1,3,-1
 1170 714 l 1,4,-1
 1161 672 l 1,5,-1
 815 672 l 1,6,7
 800 601 800 601 790 554 c 128,-1,8
 780 507 780 507 774 475 c 0,9,10
 765 429 765 429 755 385 c 1,11,-1
 1011 385 l 1,12,-1
 1002 342 l 1,13,-1
 746 342 l 1,14,-1
 685 43 l 1,15,-1
 1053 43 l 1,16,-1
 1044 0 l 1,17,-1
 605 0 l 1,18,-1
 663 273 l 1,19,-1
 382 273 l 1,20,-1
 118 1 l 1,21,-1
 62 1 l 1,22,-1
 738 714 l 1,3,-1
EndSplineSet
EndChar

StartChar: Oslash
Encoding: 216 216 138
Width: 824
Flags: HW
LayerCount: 2
Fore
SplineSet
710 716 m 1,0,-1
 724 736 l 1,1,-1
 743 736 l 1,2,-1
 728 712 l 1,3,4
 834 668 834 668 868 580 c 0,5,6
 887 532 887 532 887 471 c 0,7,8
 887 419 887 419 874 356 c 0,9,10
 818 91 818 91 598 9 c 0,11,12
 520 -20 520 -20 419 -20 c 0,13,14
 360 -20 360 -20 291 -8 c 1,15,-1
 284 -20 l 1,16,-1
 267 -20 l 1,17,-1
 277 -5 l 1,18,19
 110 55 110 55 110 245 c 0,20,21
 110 296 110 296 122 356 c 1,22,23
 160 531 160 531 288 632 c 0,24,25
 413 731 413 731 579 731 c 0,26,27
 648 731 648 731 710 716 c 1,0,-1
685 671 m 1,28,29
 626 687 626 687 569 687 c 0,30,31
 474 687 474 687 392 645 c 0,32,33
 306 602 306 602 248 495 c 0,34,35
 218 438 218 438 202 364 c 0,36,37
 189 301 189 301 189 256 c 0,38,39
 189 247 189 247 189 239 c 0,40,41
 192 188 192 188 208 150 c 0,42,43
 237 81 237 81 304 43 c 1,44,-1
 502 367 l 1,45,-1
 685 671 l 1,28,29
319 37 m 1,46,47
 363 25 363 25 429 25 c 0,48,49
 518 25 518 25 606 67 c 0,50,51
 697 112 697 112 758 218 c 0,52,53
 790 274 790 274 806 348 c 0,54,55
 818 406 818 406 818 449 c 0,56,57
 818 460 818 460 817 470 c 0,58,59
 813 520 813 520 797 558 c 0,60,61
 770 622 770 622 700 665 c 1,62,-1
 319 37 l 1,46,47
EndSplineSet
EndChar

StartChar: germandbls
Encoding: 223 223 144
Width: 572
Flags: HW
LayerCount: 2
Fore
SplineSet
484 205 m 0,0,1
 489 229 489 229 489 250 c 0,2,3
 488 282 488 282 476 304 c 0,4,5
 448 352 448 352 350 373 c 1,6,-1
 361 425 l 1,7,8
 440 429 440 429 486 461 c 128,-1,9
 532 493 532 493 548 565 c 1,10,11
 552 585 552 585 552 603 c 0,12,13
 552 648 552 648 524 672 c 0,14,15
 492 700 492 700 438 700 c 128,-1,16
 384 700 384 700 356.5 689 c 128,-1,17
 329 678 329 678 309.5 653.5 c 128,-1,18
 290 629 290 629 277.5 590.5 c 128,-1,19
 265 552 265 552 253 498 c 2,20,-1
 148 0 l 1,21,-1
 77 0 l 1,22,-1
 172 450 l 2,23,24
 186 513 186 513 201.5 568 c 128,-1,25
 217 623 217 623 245 664 c 0,26,27
 305 752 305 752 438 752 c 0,28,29
 570 752 570 752 604 660 c 0,30,31
 611 641 611 641 611 616 c 0,32,33
 611 592 611 592 605 564 c 1,34,35
 587 472 587 472 498 426 c 0,36,37
 465 409 465 409 421 400 c 1,38,39
 542 368 542 368 563 280 c 0,40,41
 566 267 566 267 566 250 c 0,42,43
 566 224 566 224 559 190 c 0,44,45
 547 132 547 132 515 90 c 128,-1,46
 483 48 483 48 442 26 c 0,47,48
 376 -8 376 -8 265 -8 c 1,49,-1
 275 39 l 1,50,51
 452 55 452 55 484 205 c 0,0,1
EndSplineSet
EndChar

StartChar: ae
Encoding: 230 230 151
Width: 826
Flags: HW
LayerCount: 2
Fore
SplineSet
841 72 m 1,0,1
 753 -16 753 -16 626 -16 c 0,2,3
 559 -16 559 -16 516 7.5 c 128,-1,4
 473 31 473 31 442 74 c 1,5,6
 342 -16 342 -16 232 -16 c 0,7,8
 67 -16 67 -16 67 140 c 0,9,10
 67 178 67 178 77 224 c 1,11,-1
 445 224 l 1,12,13
 456 276 456 276 464 324 c 0,14,15
 468 347 468 347 467 368 c 0,16,17
 467 390 467 390 463 409 c 0,18,19
 455 446 455 446 427 468.5 c 128,-1,20
 399 491 399 491 339 491 c 0,21,22
 262 491 262 491 194 434 c 0,23,24
 178 420 178 420 166 409 c 1,25,-1
 156 419 l 2,26,27
 148 427 148 427 143 432.5 c 128,-1,28
 138 438 138 438 131 444 c 1,29,30
 226 532 226 532 347.5 532 c 128,-1,31
 469 532 469 532 528 441 c 1,32,33
 630 532 630 532 742 532 c 0,34,35
 906 532 906 532 906 376 c 0,36,37
 906 339 906 339 897 292 c 1,38,-1
 529 292 l 1,39,40
 518 240 518 240 510 192 c 0,41,42
 506 168 506 168 506.5 147 c 0,43,44
 506 126 506 126 510 107 c 0,45,46
 527 25 527 25 635 25 c 0,47,48
 730 25 730 25 805 107 c 1,49,-1
 841 72 l 1,0,1
847 333 m 1,50,51
 849 346 849 346 849 358 c 0,52,53
 849 398 849 398 830 432 c 0,54,55
 799 486 799 486 732 486 c 1,56,57
 654 486 654 486 602 436 c 0,58,59
 564 399 564 399 545 333 c 1,60,-1
 847 333 l 1,50,51
127 183 m 1,61,62
 125 169 125 169 125 156 c 0,63,64
 125 116 125 116 142 84 c 0,65,66
 170 30 170 30 242 30 c 0,67,68
 355 30 355 30 406 129 c 0,69,70
 420 156 420 156 427 183 c 1,71,-1
 127 183 l 1,61,62
EndSplineSet
EndChar

StartChar: ccedilla
Encoding: 231 231 152
Width: 531
Flags: HW
LayerCount: 2
Fore
SplineSet
203 -190 m 1,0,1
 223 -200 223 -200 239.5 -200 c 128,-1,2
 256 -200 256 -200 267 -198 c 128,-1,3
 278 -196 278 -196 288 -190 c 0,4,5
 316 -174 316 -174 321 -146 c 1,6,7
 324 -134 324 -134 324 -125 c 0,8,9
 324 -84 324 -84 274 -84 c 2,10,-1
 256 -84 l 2,11,12
 248 -84 248 -84 238 -85 c 1,13,14
 244 -82 244 -82 249.5 -74 c 128,-1,15
 255 -66 255 -66 264.5 -53.5 c 128,-1,16
 274 -41 274 -41 291 -18 c 1,17,18
 175 4 175 4 130 72 c 0,19,20
 101 115 101 115 101 179 c 0,21,22
 101 216 101 216 111 261 c 0,23,24
 155 472 155 472 322 514 c 0,25,26
 375 528 375 528 432 528 c 0,27,28
 531 528 531 528 595 492 c 1,29,-1
 583 436 l 1,30,31
 509 484 509 484 428 484 c 0,32,33
 335 484 335 484 279 443 c 0,34,35
 205 389 205 389 178 263 c 1,36,37
 168 215 168 215 168 177 c 0,38,39
 168 110 168 110 198 73 c 0,40,41
 235 28 235 28 331 28 c 0,42,43
 417 28 417 28 515 71 c 1,44,45
 505 27 505 27 503 11 c 1,46,47
 398 -18 398 -18 322 -18 c 2,48,-1
 293 -18 l 1,49,-1
 261 -72 l 1,50,51
 266 -72 266 -72 270 -72 c 0,52,53
 324 -72 324 -72 346 -92 c 0,54,55
 361 -106 361 -106 361 -127 c 0,56,57
 361 -136 361 -136 358 -146 c 1,58,59
 352 -178 352 -178 326 -196 c 128,-1,60
 300 -214 300 -214 264 -217 c 1,61,62
 223 -217 223 -217 199 -211 c 1,63,-1
 203 -190 l 1,0,1
EndSplineSet
EndChar

StartChar: oslash
Encoding: 248 248 167
Width: 565
Flags: HW
LayerCount: 2
Fore
SplineSet
164 12 m 1,0,-1
 138 -20 l 1,1,-1
 126 -20 l 1,2,-1
 156 17 l 1,3,4
 110 48 110 48 98 122 c 0,5,6
 94 145 94 145 94 171 c 0,7,8
 94 210 94 210 103 254 c 0,9,10
 118 326 118 326 141 377 c 128,-1,11
 164 428 164 428 200 462 c 0,12,13
 274 532 274 532 400 533 c 0,14,15
 504 533 504 533 547 492 c 1,16,-1
 571 518 l 1,17,-1
 582 518 l 1,18,-1
 553 486 l 1,19,20
 600 444 600 444 600 350 c 0,21,22
 600 338 600 338 599 324 c 0,23,24
 593 232 593 232 553 141 c 0,25,26
 506 35 506 35 411 1 c 0,27,28
 361 -17 361 -17 288 -17 c 128,-1,29
 215 -17 215 -17 164 12 c 1,0,-1
509 443 m 1,30,31
 480 487 480 487 419 487 c 2,32,-1
 390 487 l 2,33,34
 364 487 364 487 334 484 c 128,-1,35
 304 481 304 481 275 460 c 0,36,37
 207 411 207 411 176 261 c 0,38,39
 167 219 167 219 167 181 c 0,40,41
 167 115 167 115 194 62 c 1,42,-1
 509 443 l 1,30,31
255.5 32 m 128,-1,44
 286 29 286 29 305.5 29 c 128,-1,45
 325 29 325 29 353 33 c 0,46,47
 380 36 380 36 410 58 c 0,48,49
 487 114 487 114 519 300 c 0,50,51
 526 340 526 340 526 371 c 0,52,53
 526 413 526 413 513 436 c 1,54,-1
 198 56 l 1,55,43
 225 35 225 35 255.5 32 c 128,-1,44
EndSplineSet
EndChar

StartChar: dotlessi
Encoding: 305 305 174
Width: 241
Flags: HW
LayerCount: 2
Fore
SplineSet
202 518 m 1,0,-1
 270 518 l 1,1,-1
 160 0 l 1,2,-1
 92 0 l 1,3,-1
 202 518 l 1,0,-1
EndSplineSet
EndChar

StartChar: florin
Encoding: 402 402 180
Width: 322
Flags: HW
LayerCount: 2
Fore
SplineSet
571 697 m 1,0,1
 520 727 520 727 467 727 c 128,-1,2
 414 727 414 727 384 714.5 c 128,-1,3
 354 702 354 702 337 680.5 c 128,-1,4
 320 659 320 659 312 629 c 128,-1,5
 304 599 304 599 296 563 c 2,6,-1
 286 517 l 1,7,-1
 415 517 l 1,8,-1
 406 474 l 1,9,-1
 277 474 l 1,10,-1
 172 -21 l 1,11,12
 148 -122 148 -122 89 -174 c 0,13,14
 54 -206 54 -206 4 -215 c 1,15,-1
 13 -170 l 1,16,17
 56 -137 56 -137 70 -118 c 0,18,19
 94 -84 94 -84 107 -28 c 1,20,-1
 213 474 l 1,21,-1
 127 474 l 1,22,-1
 136 517 l 1,23,-1
 222 517 l 1,24,-1
 232 563 l 2,25,26
 259 686 259 686 320 734 c 0,27,28
 376 778 376 778 477 779 c 0,29,30
 524 779 524 779 580 748 c 1,31,-1
 571 697 l 1,0,1
EndSplineSet
EndChar

StartChar: circumflex
Encoding: 710 710 181
Width: 240
Flags: HW
LayerCount: 2
Fore
SplineSet
275 728 m 1,0,-1
 174 625 l 1,1,-1
 131 625 l 1,2,-1
 262 754 l 1,3,-1
 301 754 l 1,4,-1
 376 625 l 1,5,-1
 333 625 l 1,6,-1
 275 728 l 1,0,-1
EndSplineSet
EndChar

StartChar: caron
Encoding: 711 711 182
Width: 230
Flags: HW
LayerCount: 2
Fore
SplineSet
260 651 m 1,0,-1
 361 754 l 1,1,-1
 404 754 l 1,2,-1
 273 625 l 1,3,-1
 234 625 l 1,4,-1
 159 754 l 1,5,-1
 202 754 l 1,6,-1
 260 651 l 1,0,-1
EndSplineSet
EndChar

StartChar: ring
Encoding: 730 730 183
Width: 400
Flags: HW
LayerCount: 2
Fore
SplineSet
250 662 m 0,0,1
 230 636 230 636 218 589 c 0,2,3
 213 565 213 565 213 546.5 c 0,4,5
 212 528 212 528 218 516 c 0,6,7
 228 490 228 490 246 478 c 0,8,9
 266 464 266 464 305 464.5 c 1,10,11
 344 464 344 464 371 478 c 0,12,13
 434 509 434 509 451 590 c 256,14,15
 456 612 456 612 456 630 c 0,16,17
 456 678 456 678 422 700 c 0,18,19
 398 716 398 716 358 715 c 256,20,21
 292 714 292 714 250 662 c 0,0,1
361 727 m 1,22,23
 434 726 434 726 458 691 c 0,24,25
 474 668 474 668 474 634 c 0,26,27
 474 616 474 616 469 594 c 0,28,29
 456 532 456 532 416.5 493.5 c 128,-1,30
 377 455 377 455 303 455 c 0,31,32
 198 455 198 455 194 535 c 0,33,34
 194 540 194 540 193 545 c 0,35,36
 193 566 193 566 198 590 c 0,37,38
 212 658 212 658 255 692 c 128,-1,39
 298 726 298 726 361 727 c 1,22,23
EndSplineSet
EndChar

StartChar: tilde
Encoding: 732 732 184
Width: 222
Flags: HW
LayerCount: 2
Fore
SplineSet
131 705 m 1,0,1
 151 725 151 725 193 725 c 0,2,3
 217 726 217 726 252 716 c 0,4,5
 320 698 320 698 343 697 c 0,6,7
 385 697 385 697 411 707 c 1,8,-1
 403 669 l 1,9,10
 370 646 370 646 341.5 646 c 128,-1,11
 313 646 313 646 294.5 650 c 128,-1,12
 276 654 276 654 258 659 c 0,13,14
 211 672 211 672 180.5 672 c 128,-1,15
 150 672 150 672 123 662 c 1,16,-1
 131 705 l 1,0,1
EndSplineSet
EndChar

StartChar: gravecmb
Encoding: 768 768 185
Width: 222
Flags: HW
LayerCount: 2
Fore
SplineSet
241 751 m 1,0,-1
 267 639 l 1,1,-1
 225 639 l 1,2,-1
 163 751 l 1,3,-1
 241 751 l 1,0,-1
EndSplineSet
EndChar

StartChar: acutecmb
Encoding: 769 769 186
Width: 222
Flags: HW
LayerCount: 2
Fore
SplineSet
389 742 m 1,0,-1
 264 614 l 1,1,-1
 203 614 l 1,2,-1
 287 742 l 1,3,-1
 389 742 l 1,0,-1
EndSplineSet
EndChar

StartChar: circumflexcmb
Encoding: 770 770 187
Width: 240
Flags: HW
LayerCount: 2
Fore
SplineSet
275 728 m 1,0,-1
 174 625 l 1,1,-1
 131 625 l 1,2,-1
 262 754 l 1,3,-1
 301 754 l 1,4,-1
 376 625 l 1,5,-1
 333 625 l 1,6,-1
 275 728 l 1,0,-1
EndSplineSet
EndChar

StartChar: tildecmb
Encoding: 771 771 188
Width: 222
Flags: HW
LayerCount: 2
Fore
SplineSet
131 705 m 1,0,1
 151 725 151 725 193 725 c 0,2,3
 217 726 217 726 252 716 c 0,4,5
 320 698 320 698 343 697 c 0,6,7
 385 697 385 697 411 707 c 1,8,-1
 403 669 l 1,9,10
 370 646 370 646 341.5 646 c 128,-1,11
 313 646 313 646 294.5 650 c 128,-1,12
 276 654 276 654 258 659 c 0,13,14
 211 672 211 672 180.5 672 c 128,-1,15
 150 672 150 672 123 662 c 1,16,-1
 131 705 l 1,0,1
EndSplineSet
EndChar

StartChar: ringcmb
Encoding: 778 778 190
Width: 400
Flags: HW
LayerCount: 2
Fore
SplineSet
250 662 m 0,0,1
 230 636 230 636 218 589 c 0,2,3
 213 565 213 565 213 546.5 c 0,4,5
 212 528 212 528 218 516 c 0,6,7
 228 490 228 490 246 478 c 0,8,9
 266 464 266 464 305 464.5 c 1,10,11
 344 464 344 464 371 478 c 0,12,13
 434 509 434 509 451 590 c 256,14,15
 456 612 456 612 456 630 c 0,16,17
 456 678 456 678 422 700 c 0,18,19
 398 716 398 716 358 715 c 256,20,21
 292 714 292 714 250 662 c 0,0,1
361 727 m 1,22,23
 434 726 434 726 458 691 c 0,24,25
 474 668 474 668 474 634 c 0,26,27
 474 616 474 616 469 594 c 0,28,29
 456 532 456 532 416.5 493.5 c 128,-1,30
 377 455 377 455 303 455 c 0,31,32
 198 455 198 455 194 535 c 0,33,34
 194 540 194 540 193 545 c 0,35,36
 193 566 193 566 198 590 c 0,37,38
 212 658 212 658 255 692 c 128,-1,39
 298 726 298 726 361 727 c 1,22,23
EndSplineSet
EndChar

StartChar: caroncmb
Encoding: 780 780 191
Width: 230
Flags: HW
LayerCount: 2
Fore
SplineSet
260 651 m 1,0,-1
 361 754 l 1,1,-1
 404 754 l 1,2,-1
 273 625 l 1,3,-1
 234 625 l 1,4,-1
 159 754 l 1,5,-1
 202 754 l 1,6,-1
 260 651 l 1,0,-1
EndSplineSet
EndChar

StartChar: cedillacmb
Encoding: 807 807 192
Width: 245
Flags: HW
LayerCount: 2
Fore
SplineSet
89 -90 m 0,0,1
 76 -90 76 -90 51 -95 c 1,2,3
 59 -89 59 -89 85.5 -50.5 c 128,-1,4
 112 -12 112 -12 123 2 c 1,5,-1
 130 2 l 1,6,-1
 72 -78 l 1,7,8
 84 -77 84 -77 94 -77 c 0,9,10
 163 -78 163 -78 173 -124 c 0,11,12
 175 -131 175 -131 174.5 -137.5 c 128,-1,13
 174 -144 174 -144 173 -151 c 0,14,15
 160 -215 160 -215 77 -224 c 1,16,17
 37 -224 37 -224 15 -216 c 1,18,-1
 19 -196 l 1,19,20
 42 -206 42 -206 57 -206 c 128,-1,21
 72 -206 72 -206 82.5 -204.5 c 0,22,23
 93 -204 93 -204 104 -198 c 0,24,25
 130 -185 130 -185 137 -151 c 0,26,27
 139 -140 139 -140 139 -131 c 0,28,29
 139 -90 139 -90 89 -90 c 0,0,1
EndSplineSet
EndChar

StartChar: endash
Encoding: 8211 8211 194
Width: 500
Flags: HW
LayerCount: 2
Fore
SplineSet
575 304 m 1,0,-1
 564 253 l 1,1,-1
 65 253 l 1,2,-1
 76 304 l 1,3,-1
 575 304 l 1,0,-1
EndSplineSet
EndChar

StartChar: emdash
Encoding: 8212 8212 195
Width: 1000
Flags: HW
LayerCount: 2
Fore
SplineSet
207 304 m 1,0,-1
 966 304 l 1,1,-1
 955 253 l 1,2,-1
 196 253 l 1,3,-1
 207 304 l 1,0,-1
EndSplineSet
EndChar

StartChar: quoteleft
Encoding: 8216 8216 196
Width: 278
Flags: HW
LayerCount: 2
Fore
SplineSet
300 533 m 1,0,-1
 282 448 l 1,1,-1
 195 448 l 1,2,3
 198 555 198 555 232 625 c 0,4,5
 273 710 273 710 353 721 c 1,6,-1
 344 682 l 1,7,8
 272 674 272 674 250 586 c 0,9,10
 244 560 244 560 238 533 c 1,11,-1
 300 533 l 1,0,-1
EndSplineSet
EndChar

StartChar: quoteright
Encoding: 8217 8217 197
Width: 278
Flags: HW
LayerCount: 2
Fore
SplineSet
256 722 m 1,0,-1
 343 722 l 1,1,2
 339 664 339 664 329.5 619.5 c 128,-1,3
 320 575 320 575 304 544 c 128,-1,4
 288 513 288 513 268 493 c 0,5,6
 233 458 233 458 184 449 c 1,7,-1
 192 485 l 1,8,9
 264 493 264 493 286 584 c 0,10,11
 292 610 292 610 298 637 c 1,12,-1
 238 637 l 1,13,-1
 256 722 l 1,0,-1
EndSplineSet
EndChar

StartChar: quotesinglbase
Encoding: 8218 8218 198
Width: 278
Flags: HW
LayerCount: 2
Fore
SplineSet
123 84 m 1,0,-1
 210 84 l 1,1,2
 206 19 206 19 197 -20.5 c 128,-1,3
 188 -60 188 -60 172 -91.5 c 0,4,5
 156 -124 156 -124 136 -144 c 0,6,7
 101 -180 101 -180 52 -187 c 1,8,-1
 59 -152 l 1,9,10
 130 -145 130 -145 154 -52 c 0,11,12
 160 -26 160 -26 166 0 c 1,13,-1
 106 0 l 1,14,-1
 123 84 l 1,0,-1
EndSplineSet
EndChar

StartChar: quotedblleft
Encoding: 8220 8220 199
Width: 440
Flags: HW
LayerCount: 2
Fore
SplineSet
328 683 m 1,0,1
 256 674 256 674 234 586 c 0,2,3
 228 560 228 560 221 533 c 1,4,-1
 283 533 l 1,5,-1
 265 448 l 1,6,-1
 178 448 l 1,7,8
 184 607 184 607 250 676 c 0,9,10
 284 711 284 711 336 721 c 1,11,-1
 328 683 l 1,0,1
490 533 m 1,12,-1
 472 448 l 1,13,-1
 385 448 l 1,14,15
 392 518 392 518 400.5 556 c 128,-1,16
 409 594 409 594 424.5 625 c 128,-1,17
 440 656 440 656 460 676 c 0,18,19
 494 711 494 711 544 721 c 1,20,-1
 536 683 l 1,21,22
 464 674 464 674 442 586 c 0,23,24
 436 560 436 560 430 533 c 1,25,-1
 490 533 l 1,12,-1
EndSplineSet
EndChar

StartChar: quotedblright
Encoding: 8221 8221 200
Width: 444
Flags: HW
LayerCount: 2
Fore
SplineSet
443 722 m 1,0,-1
 531 722 l 1,1,2
 531 680 531 680 520 627.5 c 128,-1,3
 509 575 509 575 493 544 c 0,4,5
 478 513 478 513 458 493 c 0,6,7
 424 458 424 458 373 449 c 1,8,-1
 381 485 l 1,9,10
 452 493 452 493 474 584 c 0,11,12
 480 610 480 610 487 637 c 1,13,-1
 425 637 l 1,14,-1
 443 722 l 1,0,-1
237 722 m 1,15,-1
 324 722 l 1,16,17
 316 648 316 648 308.5 611.5 c 128,-1,18
 301 575 301 575 285 544 c 128,-1,19
 269 513 269 513 249 493 c 0,20,21
 215 459 215 459 164 449 c 1,22,-1
 172 485 l 1,23,24
 241 492 241 492 266 584 c 0,25,26
 273 610 273 610 279 637 c 1,27,-1
 219 637 l 1,28,-1
 237 722 l 1,15,-1
EndSplineSet
EndChar

StartChar: quotedblbase
Encoding: 8222 8222 201
Width: 487
Flags: HW
LayerCount: 2
Fore
SplineSet
119 84 m 1,0,-1
 205 84 l 1,1,2
 196 -76 196 -76 132 -144 c 0,3,4
 97 -180 97 -180 48 -187 c 1,5,-1
 55 -152 l 1,6,7
 124 -144 124 -144 148 -52 c 0,8,9
 154 -26 154 -26 161 0 c 1,10,-1
 102 0 l 1,11,-1
 119 84 l 1,0,-1
345 84 m 1,12,-1
 432 84 l 1,13,14
 428 -75 428 -75 360 -144 c 0,15,16
 325 -180 325 -180 275 -187 c 1,17,-1
 282 -152 l 1,18,19
 332 -146 332 -146 356 -100 c 0,20,21
 373 -66 373 -66 386 -1 c 1,22,23
 373 -1 373 -1 357.5 -0.5 c 128,-1,24
 342 0 342 0 328 0 c 1,25,-1
 345 84 l 1,12,-1
EndSplineSet
EndChar

StartChar: bullet
Encoding: 8226 8226 202
Width: 500
Flags: HW
LayerCount: 2
Fore
SplineSet
78 364 m 0,0,1
 78 402 78 402 92 434.5 c 128,-1,2
 106 467 106 467 131 492 c 0,3,4
 184 545 184 545 259 545 c 128,-1,5
 334 545 334 545 387 492 c 128,-1,6
 440 439 440 439 440 364 c 128,-1,7
 440 289 440 289 387 236 c 128,-1,8
 334 183 334 183 259 183 c 128,-1,9
 184 183 184 183 131 236.5 c 128,-1,10
 78 290 78 290 78 364 c 0,0,1
EndSplineSet
EndChar

StartChar: ellipsis
Encoding: 8230 8230 203
Width: 813
Flags: HW
LayerCount: 2
Fore
SplineSet
110 83 m 1,0,-1
 195 83 l 1,1,-1
 177 -1 l 1,2,-1
 92 -1 l 1,3,-1
 110 83 l 1,0,-1
404 83 m 1,4,-1
 489 83 l 1,5,-1
 471 -1 l 1,6,-1
 386 -1 l 1,7,-1
 404 83 l 1,4,-1
698 83 m 1,8,-1
 782 83 l 1,9,-1
 764 -1 l 1,10,-1
 680 -1 l 1,11,-1
 698 83 l 1,8,-1
EndSplineSet
EndChar

StartChar: guilsinglleft
Encoding: 8249 8249 204
Width: 306
Flags: HW
LayerCount: 2
Fore
SplineSet
147 302 m 2,0,-1
 342 423 l 1,1,2
 339 409 339 409 335.5 396 c 128,-1,3
 332 383 332 383 321 378 c 1,4,-1
 165 282 l 1,5,6
 173 275 173 275 190 260.5 c 0,7,8
 206 246 206 246 224 231 c 0,9,10
 265 196 265 196 277 189 c 1,11,12
 288 180 288 180 286.5 166 c 128,-1,13
 285 152 285 152 282 140 c 1,14,-1
 139 262 l 1,15,16
 130 269 130 269 130 278 c 0,17,18
 130 292 130 292 147 302 c 2,0,-1
EndSplineSet
EndChar

StartChar: guilsinglright
Encoding: 8250 8250 205
Width: 311
Flags: HW
LayerCount: 2
Fore
SplineSet
309 302 m 2,0,1
 317 296 317 296 317 287 c 0,2,3
 316 285 316 285 316 282 c 0,4,5
 314 270 314 270 299 262 c 1,6,-1
 104 140 l 1,7,8
 107 152 107 152 111.5 166 c 128,-1,9
 116 180 116 180 126 186 c 2,10,-1
 156 204 l 2,11,12
 251 261 251 261 281 282 c 1,13,-1
 167 378 l 1,14,15
 158 383 158 383 159.5 396 c 128,-1,16
 161 409 161 409 164 423 c 1,17,-1
 309 302 l 2,0,1
EndSplineSet
EndChar

StartChar: fraction
Encoding: 8260 8260 206
Width: 347
Flags: HW
LayerCount: 2
Fore
SplineSet
515 753 m 1,0,-1
 17 -20 l 1,1,-1
 4 -20 l 1,2,-1
 503 753 l 1,3,-1
 515 753 l 1,0,-1
EndSplineSet
EndChar

StartChar: Euro
Encoding: 8364 8364 207
Width: 615
Flags: HW
LayerCount: 2
Fore
SplineSet
453 293 m 1,0,1
 449 281 449 281 443 271 c 1,2,-1
 256 271 l 1,3,4
 262 99 262 99 368 60 c 0,5,6
 387 53 387 53 413 53 c 0,7,8
 478 53 478 53 531.5 75.5 c 128,-1,9
 585 98 585 98 632 130 c 1,10,-1
 617 60 l 1,11,12
 455 0 455 0 408 0 c 0,13,14
 405 0 405 0 402 0 c 1,15,16
 299 0 299 0 237 72 c 0,17,18
 174 146 174 146 170 271 c 1,19,-1
 97 271 l 1,20,-1
 115 293 l 1,21,-1
 174 293 l 1,22,23
 190 398 190 398 210 460 c 1,24,-1
 137 460 l 1,25,-1
 155 481 l 1,26,-1
 216 481 l 1,27,28
 332 769 332 769 565 769 c 0,29,30
 620 769 620 769 667 757.5 c 128,-1,31
 714 746 714 746 753 734 c 1,32,-1
 739 672 l 1,33,34
 699 692 699 692 653 708.5 c 128,-1,35
 607 725 607 725 569 725 c 128,-1,36
 531 725 531 725 500 718 c 0,37,38
 468 710 468 710 434 686 c 0,39,40
 355 630 355 630 297 481 c 1,41,-1
 548 481 l 1,42,-1
 536 460 l 1,43,-1
 292 460 l 1,44,45
 286 434 286 434 281 415.5 c 128,-1,46
 276 397 276 397 272 379 c 0,47,48
 267 355 267 355 260 293 c 1,49,-1
 453 293 l 1,0,1
EndSplineSet
EndChar

StartChar: approxequal
Encoding: 8776 8776 208
Width: 600
Flags: HW
LayerCount: 2
Fore
SplineSet
149 197 m 1,0,1
 152 211 152 211 152.5 218 c 128,-1,2
 153 225 153 225 156 237 c 1,3,4
 187 250 187 250 212.5 259 c 128,-1,5
 238 268 238 268 269.5 268 c 128,-1,6
 301 268 301 268 323 263.5 c 0,7,8
 344 259 344 259 364 254 c 0,9,10
 419 240 419 240 459 240 c 0,11,12
 519 240 519 240 573 262 c 1,13,-1
 564 217 l 1,14,15
 490 189 490 189 456 189 c 128,-1,16
 422 189 422 189 398.5 193 c 0,17,18
 375 196 375 196 355 202 c 0,19,20
 306 216 306 216 262.5 216 c 128,-1,21
 219 216 219 216 149 197 c 1,0,1
EndSplineSet
EndChar

StartChar: ff
Encoding: 64256 64256 210
Width: 626
Flags: HW
LayerCount: 2
Fore
SplineSet
573 690 m 1,0,1
 510 728 510 728 458 728 c 128,-1,2
 406 728 406 728 376.5 715.5 c 128,-1,3
 347 703 347 703 330.5 681.5 c 128,-1,4
 314 660 314 660 305.5 630 c 128,-1,5
 297 600 297 600 289 564 c 2,6,-1
 280 518 l 1,7,-1
 546 518 l 1,8,-1
 555 564 l 1,9,10
 582 686 582 686 644 736 c 0,11,12
 698 780 698 780 799 780 c 1,13,14
 842 780 842 780 904 749 c 1,15,-1
 894 698 l 1,16,17
 840 728 840 728 788 728 c 128,-1,18
 736 728 736 728 706 715.5 c 128,-1,19
 676 703 676 703 659 681.5 c 128,-1,20
 642 660 642 660 634 630 c 128,-1,21
 626 600 626 600 618 564 c 2,22,-1
 609 518 l 1,23,-1
 738 518 l 1,24,-1
 728 475 l 1,25,-1
 599 475 l 1,26,-1
 454 -211 l 1,27,-1
 391 -211 l 1,28,-1
 536 475 l 1,29,-1
 270 475 l 1,30,-1
 125 -211 l 1,31,-1
 62 -211 l 1,32,-1
 207 475 l 1,33,-1
 121 475 l 1,34,-1
 131 518 l 1,35,-1
 217 518 l 1,36,-1
 226 564 l 1,37,38
 254 686 254 686 314 736 c 0,39,40
 368 780 368 780 468 780 c 0,41,42
 524 780 524 780 584 742 c 1,43,-1
 573 690 l 1,0,1
EndSplineSet
EndChar

StartChar: fi
Encoding: 64257 64257 211
Width: 606
Flags: HW
LayerCount: 2
Fore
SplineSet
664 518 m 1,0,-1
 554 0 l 1,1,-1
 483 0 l 1,2,-1
 583 475 l 1,3,-1
 266 475 l 1,4,-1
 166 0 l 1,5,-1
 101 0 l 1,6,-1
 201 475 l 1,7,-1
 122 475 l 1,8,-1
 132 518 l 1,9,-1
 211 518 l 1,10,-1
 230 610 l 1,11,12
 253 715 253 715 320 769 c 0,13,14
 383 820 383 820 467 820 c 0,15,16
 528 820 528 820 557 810 c 0,17,18
 591 798 591 798 630 772 c 1,19,-1
 637 805 l 1,20,-1
 725 805 l 1,21,-1
 706 716 l 1,22,-1
 604 716 l 1,23,24
 556 755 556 755 502 772 c 0,25,26
 482 778 482 778 454 778 c 128,-1,27
 426 778 426 778 396.5 761 c 128,-1,28
 367 744 367 744 346 718 c 0,29,30
 308 671 308 671 293 606 c 1,31,-1
 275 518 l 1,32,-1
 664 518 l 1,0,-1
EndSplineSet
EndChar

StartChar: fl
Encoding: 64258 64258 212
Width: 602
Flags: HW
LayerCount: 2
Fore
SplineSet
479 1 m 1,0,-1
 613 634 l 2,1,2
 618 656 618 656 618 675 c 0,3,4
 618 716 618 716 593 738 c 0,5,6
 557 770 557 770 463 771 c 1,7,8
 356 768 356 768 322 670 c 0,9,10
 312 640 312 640 305 607 c 2,11,-1
 286 518 l 1,12,-1
 413 518 l 1,13,-1
 403 474 l 1,14,-1
 276 474 l 1,15,-1
 176 0 l 1,16,-1
 110 0 l 1,17,-1
 210 474 l 1,18,-1
 120 474 l 1,19,-1
 130 518 l 1,20,-1
 220 518 l 1,21,-1
 239 607 l 1,22,23
 275 784 275 784 395 814 c 0,24,25
 432 824 432 824 474.5 823.5 c 128,-1,26
 517 823 517 823 560 815.5 c 128,-1,27
 603 808 603 808 635 788 c 0,28,29
 690 753 690 753 690 683 c 0,30,31
 690 660 690 660 684 634 c 2,32,-1
 550 1 l 1,33,-1
 479 1 l 1,0,-1
EndSplineSet
EndChar

StartChar: tt
Encoding: 65539 -1 213
Width: 632
Flags: HW
LayerCount: 2
Fore
SplineSet
448 28 m 1,0,1
 389 -15 389 -15 310 -15 c 1,2,3
 283 -15 283 -15 250 -13.5 c 0,4,5
 216 -12 216 -12 190 2 c 0,6,7
 143 26 143 26 143 89 c 0,8,9
 143 111 143 111 149 138 c 2,10,-1
 220 474 l 1,11,-1
 119 474 l 1,12,-1
 128 517 l 1,13,-1
 228 517 l 1,14,-1
 282 671 l 1,15,-1
 327 671 l 1,16,-1
 214 138 l 2,17,18
 210 122 210 122 210 109 c 0,19,20
 210 64 210 64 250 47 c 0,21,22
 276 36 276 36 337 36 c 0,23,24
 362 36 362 36 392 48 c 0,25,26
 452 71 452 71 457 97 c 2,27,-1
 537 475 l 1,28,-1
 355 475 l 1,29,-1
 365 518 l 1,30,-1
 545 518 l 1,31,32
 581 631 581 631 597 672 c 1,33,-1
 643 672 l 1,34,-1
 611 518 l 1,35,-1
 744 518 l 1,36,-1
 734 475 l 1,37,-1
 601 475 l 1,38,-1
 530 139 l 2,39,40
 519 89 519 89 519 69 c 0,41,42
 519 62 519 62 521 58 c 0,43,44
 526 44 526 44 536.5 40.5 c 128,-1,45
 547 37 547 37 577.5 37 c 128,-1,46
 608 37 608 37 643 54 c 1,47,-1
 632 3 l 1,48,49
 601 -8 601 -8 580 -10 c 128,-1,50
 559 -12 559 -12 541 -12 c 128,-1,51
 523 -12 523 -12 510.5 -10.5 c 0,52,53
 498 -8 498 -8 486 -4 c 0,54,55
 456 8 456 8 448 28 c 1,0,1
EndSplineSet
EndChar

StartChar: ti
Encoding: 65540 -1 214
Width: 547
Flags: HW
LayerCount: 2
Fore
SplineSet
548 518 m 1,0,-1
 615 518 l 1,1,-1
 511 12 l 1,2,3
 378 -15 378 -15 331.5 -15 c 128,-1,4
 285 -15 285 -15 252.5 -12 c 128,-1,5
 220 -9 220 -9 194 6 c 0,6,7
 147 32 147 32 147 93 c 0,8,9
 147 113 147 113 152 138 c 2,10,-1
 223 475 l 1,11,-1
 123 475 l 1,12,-1
 133 518 l 1,13,-1
 232 518 l 1,14,-1
 284 671 l 1,15,-1
 331 671 l 1,16,-1
 299 518 l 1,17,-1
 432 518 l 1,18,-1
 422 475 l 1,19,-1
 289 475 l 1,20,-1
 218 138 l 2,21,22
 215 125 215 125 215 114 c 0,23,24
 214 66 214 66 262 48 c 0,25,26
 293 35 293 35 336 36 c 0,27,28
 362 36 362 36 392 40 c 0,29,30
 422 44 422 44 449 56 c 1,31,-1
 548 518 l 1,0,-1
572 710 m 1,32,-1
 590 795 l 1,33,-1
 673 795 l 1,34,-1
 655 710 l 1,35,-1
 572 710 l 1,32,-1
EndSplineSet
EndChar

StartChar: th
Encoding: 65541 -1 215
Width: 870
Flags: HW
LayerCount: 2
Fore
SplineSet
858 318 m 2,0,1
 866 354 866 354 866 383 c 0,2,3
 866 443 866 443 832 468 c 0,4,5
 814 481 814 481 778.5 481 c 128,-1,6
 743 481 743 481 705.5 468 c 128,-1,7
 668 455 668 455 639 434 c 0,8,9
 577 389 577 389 567 337 c 2,10,-1
 503 33 l 1,11,12
 438 -4 438 -4 340 -13 c 0,13,14
 318 -15 318 -15 299.5 -15 c 128,-1,15
 281 -15 281 -15 248 -10.5 c 0,16,17
 214 -6 214 -6 188 10 c 0,18,19
 140 38 140 38 140 99 c 0,20,21
 140 116 140 116 144 136 c 1,22,-1
 216 475 l 1,23,-1
 114 475 l 1,24,-1
 124 518 l 1,25,-1
 225 518 l 1,26,-1
 278 671 l 1,27,-1
 323 671 l 1,28,-1
 291 518 l 1,29,-1
 425 518 l 1,30,-1
 415 475 l 1,31,-1
 281 475 l 1,32,-1
 210 138 l 2,33,34
 207 124 207 124 207 112 c 0,35,36
 208 72 208 72 242 52 c 0,37,38
 269 37 269 37 318 36 c 0,39,40
 384 36 384 36 428 65 c 0,41,42
 446 77 446 77 451 96 c 2,43,-1
 599 795 l 1,44,-1
 664 795 l 1,45,-1
 585 422 l 1,46,47
 652 496 652 496 752 520 c 0,48,49
 786 528 786 528 818.5 528 c 128,-1,50
 851 528 851 528 876 514.5 c 0,51,52
 902 501 902 501 916 474 c 0,53,54
 933 443 933 443 932 396 c 0,55,56
 932 358 932 358 921 310 c 1,57,-1
 856 0 l 1,58,-1
 791 0 l 1,59,-1
 858 318 l 2,0,1
EndSplineSet
EndChar

StartChar: ck
Encoding: 65542 -1 216
Width: 1047
Flags: HW
LayerCount: 2
Fore
SplineSet
567 437 m 1,0,1
 488 486 488 486 416 486 c 0,2,3
 322 486 322 486 266 445 c 0,4,5
 193 392 193 392 166 265 c 0,6,7
 155 216 155 216 155 177 c 0,8,9
 155 111 155 111 186 75 c 0,10,11
 224 30 224 30 319 30 c 257,12,13
 437 30 437 30 579 119 c 0,14,15
 622 146 622 146 658 178 c 1,16,-1
 789 795 l 1,17,-1
 857 795 l 1,18,-1
 775 406 l 1,19,20
 822 470 822 470 889.5 510 c 128,-1,21
 957 550 957 550 1026 550 c 0,22,23
 1086 550 1086 550 1118 509 c 0,24,25
 1139 481 1139 481 1140 444 c 0,26,27
 1140 429 1140 429 1136 411 c 0,28,29
 1124 353 1124 353 1070 300.5 c 128,-1,30
 1016 248 1016 248 937 200 c 1,31,-1
 1047 0 l 1,32,-1
 967 0 l 1,33,-1
 871 169 l 1,34,-1
 807 144 l 1,35,36
 810 166 810 166 817 196 c 1,37,38
 964 254 964 254 1036 334 c 0,39,40
 1064 364 1064 364 1072 404 c 0,41,42
 1074 415 1074 415 1075 426 c 0,43,44
 1076 452 1076 452 1060 472 c 0,45,46
 1038 500 1038 500 1001.5 499.5 c 128,-1,47
 965 499 965 499 926 482 c 0,48,49
 888 464 888 464 852 436 c 0,50,51
 769 370 769 370 752 297 c 2,52,-1
 723 164 l 1,53,54
 632 90 632 90 569 57 c 0,55,56
 429 -16 429 -16 302.5 -16 c 128,-1,57
 176 -16 176 -16 120 52 c 0,58,59
 84 96 84 96 84 172 c 0,60,61
 84 213 84 213 95 263 c 1,62,63
 128 412 128 412 212 474 c 0,64,65
 291 532 291 532 426 532 c 0,66,67
 497 532 497 532 580 494 c 1,68,-1
 567 437 l 1,0,1
EndSplineSet
EndChar

StartChar: mm
Encoding: 65543 -1 217
Width: 1340
Flags: HW
LayerCount: 2
Fore
SplineSet
1343 330 m 2,0,1
 1354 381 1354 381 1354 410 c 0,2,3
 1354 421 1354 421 1352 428 c 0,4,5
 1347 457 1347 457 1331 470.5 c 128,-1,6
 1315 484 1315 484 1280.5 484 c 128,-1,7
 1246 484 1246 484 1215.5 469.5 c 128,-1,8
 1185 455 1185 455 1162 432 c 0,9,10
 1116 386 1116 386 1103 320 c 2,11,-1
 1035 0 l 1,12,-1
 969 0 l 1,13,-1
 1037 320 l 1,14,15
 1047 371 1047 371 1047 402 c 0,16,17
 1047 417 1047 417 1044 427 c 0,18,19
 1037 457 1037 457 1022.5 470.5 c 128,-1,20
 1008 484 1008 484 977 484 c 128,-1,21
 946 484 946 484 916 469.5 c 128,-1,22
 886 455 886 455 862 432 c 0,23,24
 816 387 816 387 801 325 c 1,25,-1
 735 0 l 1,26,-1
 671 0 l 1,27,-1
 741 330 l 2,28,29
 752 387 752 387 752 416 c 0,30,31
 752 428 752 428 750 436 c 0,32,33
 744 462 744 462 727.5 473 c 128,-1,34
 711 484 711 484 677 484 c 128,-1,35
 643 484 643 484 612.5 469.5 c 128,-1,36
 582 455 582 455 559 432 c 0,37,38
 513 386 513 386 500 320 c 2,39,-1
 432 0 l 1,40,-1
 367 0 l 1,41,-1
 435 320 l 2,42,43
 446 370 446 370 446 405 c 0,44,45
 446 426 446 426 442 442 c 0,46,47
 432 484 432 484 377 484 c 0,48,49
 308 484 308 484 256 430 c 0,50,51
 210 382 210 382 198 320 c 1,52,-1
 130 0 l 1,53,-1
 62 0 l 1,54,-1
 171 517 l 1,55,-1
 229 517 l 1,56,-1
 218 418 l 1,57,58
 273 504 273 504 367 526 c 0,59,60
 394 532 394 532 415 532.5 c 128,-1,61
 436 533 436 533 453 526.5 c 128,-1,62
 470 520 470 520 484 506 c 0,63,64
 514 475 514 475 513 424 c 0,65,66
 513 421 513 421 513 418 c 1,67,68
 546 465 546 465 604 498 c 0,69,70
 666 533 666 533 722 533 c 0,71,72
 790 533 790 533 812 465 c 0,73,74
 819 444 819 444 818 414 c 0,75,76
 818 410 818 410 818 406 c 1,77,78
 850 465 850 465 912 502 c 0,79,80
 965 533 965 533 1022 533 c 0,81,82
 1090 533 1090 533 1112 473 c 0,83,84
 1118 455 1118 455 1118 431 c 0,85,86
 1118 425 1118 425 1118 418 c 1,87,88
 1148 466 1148 466 1208 500 c 0,89,90
 1266 532 1266 532 1328 533 c 0,91,92
 1392 533 1392 533 1410 486 c 0,93,94
 1418 464 1418 464 1418 429 c 0,95,96
 1418 386 1418 386 1405 323 c 2,97,-1
 1337 0 l 1,98,-1
 1273 0 l 1,99,-1
 1343 330 l 2,0,1
EndSplineSet
EndChar

StartChar: oo
Encoding: 65544 -1 218
Width: 945
Flags: HW
LayerCount: 2
Fore
SplineSet
578 437 m 1,0,1
 630 485 630 485 684.5 509 c 128,-1,2
 739 533 739 533 808 533 c 128,-1,3
 877 533 877 533 920 511.5 c 128,-1,4
 963 490 963 490 984 453 c 0,5,6
 1007 413 1007 413 1007 353 c 0,7,8
 1007 312 1007 312 996 261 c 1,9,10
 967 121 967 121 900 54 c 0,11,12
 829 -17 829 -17 703 -17 c 128,-1,13
 577 -17 577 -17 515 80 c 1,14,15
 412 -17 412 -17 284 -17 c 256,16,17
 155 -18 155 -18 109 66 c 0,18,19
 85 109 85 109 85 171 c 0,20,21
 85 212 85 212 96 261 c 0,22,23
 126 398 126 398 192 462 c 0,24,25
 266 532 266 532 391.5 532.5 c 128,-1,26
 517 533 517 533 578 437 c 1,0,1
214 393 m 128,-1,28
 186 347 186 347 168 263 c 0,29,30
 156 203 156 203 156 162 c 0,31,32
 156 146 156 146 158 132 c 0,33,34
 165 86 165 86 186 63 c 128,-1,35
 207 40 207 40 237 34.5 c 128,-1,36
 267 29 267 29 287.5 29 c 128,-1,37
 308 29 308 29 326.5 30 c 128,-1,38
 345 31 345 31 365.5 37.5 c 128,-1,39
 386 44 386 44 407.5 58 c 0,40,41
 428 72 428 72 448 98 c 0,42,43
 493 158 493 158 513 252 c 0,44,45
 525 310 525 310 526 349 c 0,46,47
 526 373 526 373 521 391 c 0,48,49
 509 437 509 437 484.5 458 c 128,-1,50
 460 479 460 479 431 483 c 128,-1,51
 402 487 402 487 382.5 487 c 128,-1,52
 363 487 363 487 333.5 484 c 128,-1,53
 304 481 304 481 273 460 c 128,-1,27
 242 439 242 439 214 393 c 128,-1,28
598 346 m 128,-1,55
 583 305 583 305 573.5 259 c 0,56,57
 564 212 564 212 563 170 c 0,58,59
 563 167 563 167 563 165 c 0,60,61
 564 126 564 126 576 96 c 0,62,63
 605 28 605 28 707 29 c 1,64,65
 751 29 751 29 774 36.5 c 128,-1,66
 797 44 797 44 817.5 58 c 128,-1,67
 838 72 838 72 858 98 c 0,68,69
 902 157 902 157 921 251 c 0,70,71
 935 317 935 317 935 359 c 0,72,73
 934 377 934 377 932 391 c 0,74,75
 924 437 924 437 901.5 458 c 128,-1,76
 879 479 879 479 849.5 483 c 128,-1,77
 820 487 820 487 779.5 487 c 128,-1,78
 739 487 739 487 701 468.5 c 128,-1,79
 663 450 663 450 638 418.5 c 128,-1,54
 613 387 613 387 598 346 c 128,-1,55
EndSplineSet
EndChar

StartChar: rt
Encoding: 65545 -1 219
Width: 677
Flags: HW
LayerCount: 2
Fore
SplineSet
464 464 m 1,0,1
 404 480 404 480 390 481 c 1,2,3
 367 481 367 481 340 475 c 128,-1,4
 313 469 313 469 287 446 c 0,5,6
 228 393 228 393 197 248 c 2,7,-1
 145 0 l 1,8,-1
 74 0 l 1,9,-1
 184 518 l 1,10,-1
 244 518 l 1,11,-1
 231 414 l 1,12,13
 258 470 258 470 312 504 c 0,14,15
 357 532 357 532 396 533 c 0,16,17
 452 533 452 533 482 518 c 1,18,-1
 464 464 l 1,0,1
595 537 m 1,19,-1
 643 671 l 1,20,-1
 688 671 l 1,21,-1
 656 518 l 1,22,-1
 790 518 l 1,23,-1
 780 475 l 1,24,-1
 646 475 l 1,25,-1
 575 139 l 2,26,27
 564 89 564 89 564 69 c 0,28,29
 564 62 564 62 566 58 c 0,30,31
 571 44 571 44 581.5 40.5 c 128,-1,32
 592 37 592 37 611 37 c 0,33,34
 640 37 640 37 690 57 c 1,35,-1
 678 2 l 1,36,37
 623 -13 623 -13 581 -13 c 0,38,39
 556 -14 556 -14 536 -8 c 0,40,41
 497 2 497 2 497 55 c 0,42,43
 497 76 497 76 503 104 c 2,44,-1
 595 537 l 1,19,-1
EndSplineSet
EndChar

StartChar: periodcentered
Encoding: 65546 -1 220
Width: 290
Flags: HW
LayerCount: 2
Fore
SplineSet
189 391 m 1,0,-1
 274 391 l 1,1,-1
 256 306 l 1,2,-1
 171 306 l 1,3,-1
 189 391 l 1,0,-1
EndSplineSet
EndChar
